<svg id="Layer_1" data-name="Layer 1" xmlns="http://www.w3.org/2000/svg" viewBox="0 0 1322.13 406.18"><defs><style>.cls-1{font-size:16px;font-family:MyriadPro-Regular, Myriad Pro;}.cls-2{fill:none;stroke:#000;stroke-miterlimit:10;stroke-width:2.74px;}.cls-3{fill:#202020;}.cls-4{font-size:60px;fill:#ed1c24;font-family:SegoeUI-Bold, Segoe UI;font-weight:700;}.cls-5{font-size:33px;fill:#00233d;font-family:SegoeUI-Semibold, Segoe UI;font-weight:600;}</style></defs><title>About TEXT ( font-family-size )</title><text class="cls-1" transform="translate(1220.69 20.37)">Font: Segoe UI<tspan x="0" y="19.2">Style: bold</tspan><tspan x="0" y="38.4" xml:space="preserve">size:  60 pt</tspan></text><text class="cls-1" transform="translate(1220.69 208.75)">Font: Segoe UI<tspan x="0" y="19.2">Style: semibold</tspan><tspan x="0" y="38.4" xml:space="preserve">size:  33 pt</tspan></text><polyline class="cls-2" points="1033.58 88.17 1068.91 88.17 1068.91 329.34 1033.58 329.34"/><polygon class="cls-3" points="1200.67 33.76 1193.48 40.95 1191.45 40.95 1197.92 34.48 305.59 34.48 305.59 33.04 1197.92 33.04 1191.45 26.57 1193.48 26.57 1200.67 33.76"/><polygon class="cls-3" points="1187.38 216.1 1179.44 224.03 1177.2 224.03 1184.34 216.89 1067.5 216.89 1067.5 215.31 1184.34 215.31 1177.2 208.16 1179.44 208.16 1187.38 216.1"/><text class="cls-4" transform="translate(0 51.01)">Our Story</text><text class="cls-5" transform="translate(2 124.05)">We are a new online sore ofering you to buy a unique collection <tspan x="0" y="39.6">of Assiut Kilim. Our goal is to revive Assiut kilim indusry inside </tspan><tspan x="0" y="79.2">and outside Egypt. As it is disinguished by its bright colors. Each </tspan><tspan x="0" y="118.8">piece is carefully selected, designed and crafted to add elegance </tspan><tspan x="0" y="158.4">to their homes. We hope you enjoy shopping in our sore!</tspan></text></svg>