<svg id="Layer_1" data-name="Layer 1" xmlns="http://www.w3.org/2000/svg" viewBox="0 0 1317.15 378.13"><defs><style>.cls-1,.cls-2,.cls-3{isolation:isolate;}.cls-2{font-size:18.93px;}.cls-2,.cls-3{font-family:ArialMT, Arial;}.cls-3{font-size:18.95px;}.cls-4{fill:none;stroke:#000;stroke-miterlimit:10;stroke-width:2.74px;}.cls-5{fill:#202020;}.cls-6{font-size:55px;fill:#ed1c24;font-family:SegoeUI-Bold, Segoe UI;font-weight:700;}.cls-7{font-size:28px;fill:#00233d;font-family:SegoeUI-Semibold, Segoe UI;font-weight:600;}</style></defs><title>About TEXT  German</title><g class="cls-1"><text class="cls-2" transform="translate(1189.8 19.69)">Font: Segoe UI</text><text class="cls-2" transform="translate(1189.8 42.41)">Style: bold</text><text class="cls-2" transform="translate(1189.8 65.13)"><tspan xml:space="preserve">size:  55 pt</tspan></text></g><g class="cls-1"><text class="cls-3" transform="translate(1179.79 188.09)">Font: Segoe UI</text><text class="cls-3" transform="translate(1179.79 210.83)">Style: semibold</text><text class="cls-3" transform="translate(1179.79 233.58)"><tspan xml:space="preserve">size:  28 pt</tspan></text></g><polyline class="cls-4" points="1012.7 91.98 1048.03 91.98 1048.03 333.15 1012.7 333.15"/><polygon class="cls-5" points="1179.79 30.57 1174.31 37.76 1172.77 37.76 1177.69 31.29 498.44 31.29 498.44 29.85 1177.69 29.85 1172.77 23.38 1174.31 23.38 1179.79 30.57"/><polygon class="cls-5" points="1166.5 201.91 1158.56 209.84 1156.32 209.84 1163.46 202.7 1046.62 202.7 1046.62 201.12 1163.46 201.12 1156.32 193.97 1158.56 193.97 1166.5 201.91"/><text class="cls-6" transform="translate(0 46.76)">Unsere Geschichte</text><text class="cls-7" transform="translate(6.64 127.14)">Wir sind ein neuer Online-Shop, in dem unser Sie eine einzigartigen Kollek-<tspan x="0" y="33.6">tionen von Assiut Kilim kaufen können. Unser Ziel is es, die Assiut Kilim Indus-</tspan><tspan x="0" y="67.2">trie innerhalb und außerhalb Ägyptens wiederzubeleben. Der Kelim zeichnet </tspan><tspan x="0" y="100.8">sich durch seine helle Farbe aus. Jedes Stück is sorgfältig ausgewählt, entwor-</tspan><tspan x="0" y="134.4">fen und gefertigt, um Eleganz in ihr Zuhause zu bringen. Wir wünschen Ihnen </tspan><tspan x="0" y="168">viel Spaß beim Einkaufen in unserem Shop!</tspan></text></svg>