<svg id="Layer_1" data-name="Layer 1" xmlns="http://www.w3.org/2000/svg" viewBox="0 0 1724.56 2255.01"><defs><style>.cls-1,.cls-2,.cls-5,.cls-6,.cls-8,.cls-9{isolation:isolate;}.cls-2{font-size:27.37px;}.cls-2,.cls-5,.cls-6,.cls-8,.cls-9{font-family:ArialMT, Arial;}.cls-10,.cls-19,.cls-3,.cls-7{fill:none;stroke-miterlimit:10;}.cls-10,.cls-3,.cls-7{stroke:#000;}.cls-3{stroke-width:2.6px;}.cls-4{fill:#202020;}.cls-5{font-size:19.94px;}.cls-6{font-size:21.63px;}.cls-7{stroke-width:2.05px;}.cls-8{font-size:38.96px;}.cls-9{font-size:21.47px;}.cls-10{stroke-width:5.34px;}.cls-11{font-size:45px;}.cls-11,.cls-12,.cls-13,.cls-15,.cls-17,.cls-22{fill:#00233d;}.cls-11,.cls-13{font-family:SegoeUI-Semibold, Segoe UI;font-weight:600;}.cls-12{font-size:25px;}.cls-12,.cls-14,.cls-15,.cls-18{font-family:SegoeUI, Segoe UI;}.cls-13{font-size:34px;}.cls-14,.cls-15,.cls-22{font-size:30px;}.cls-14,.cls-18{font-weight:400;}.cls-16,.cls-17,.cls-21{font-size:36px;font-family:SegoeUI-Bold, Segoe UI;font-weight:700;}.cls-18{font-size:35px;}.cls-19{stroke:#00233d;stroke-width:0.5px;}.cls-20{fill:#ed1c24;}.cls-21{fill:#fff;}.cls-22{font-family:SegoeUI-Light, Segoe UI;font-weight:300;}</style></defs><title>cart page TEXT ( font-family-size )</title><g class="cls-1"><text class="cls-2" transform="translate(926.95 68.14)">Font: Segoe UI</text><text class="cls-2" transform="translate(926.95 100.98)">Style: semibold</text><text class="cls-2" transform="translate(926.95 133.83)"><tspan xml:space="preserve">size:  45 pt</tspan></text></g><polyline class="cls-3" points="744.04 1.3 779.37 1.3 779.37 218.08 744.04 218.08"/><polygon class="cls-4" points="909.71 106.92 901.42 115.2 899.08 115.2 906.53 107.75 778.96 107.75 778.96 106.08 906.53 106.08 899.08 98.64 901.42 98.64 909.71 106.92"/><g class="cls-1"><text class="cls-5" transform="translate(520.61 1434.56)">Font: Segoe UI</text><text class="cls-5" transform="translate(520.61 1458.48)">Style: semibold\</text><text class="cls-5" transform="translate(520.61 1482.4)"><tspan xml:space="preserve">size:  34 pt</tspan></text></g><g class="cls-1"><text class="cls-6" transform="translate(263.57 1522.53)">Font: Segoe UI</text><text class="cls-6" transform="translate(263.57 1548.49)">Style: regular</text><text class="cls-6" transform="translate(263.57 1574.45)"><tspan xml:space="preserve">size:  30 pt</tspan></text></g><polyline class="cls-7" points="169.22 1462.37 204.55 1462.37 204.55 1597.69 169.22 1597.69"/><polygon class="cls-4" points="509.92 1445.93 484 1454.22 476.69 1454.22 499.98 1446.76 101.18 1446.76 101.18 1445.1 499.98 1445.1 476.69 1437.65 484 1437.65 509.92 1445.93"/><g class="cls-1"><text class="cls-5" transform="translate(515.27 1687.3)">Font: Segoe UI</text><text class="cls-5" transform="translate(515.27 1711.22)">Style: semibold\</text><text class="cls-5" transform="translate(515.27 1735.15)"><tspan xml:space="preserve">size:  34 pt</tspan></text></g><polygon class="cls-4" points="504.57 1698.68 478.66 1706.97 471.34 1706.97 494.63 1699.51 95.83 1699.51 95.83 1697.85 494.63 1697.85 471.34 1690.4 478.66 1690.4 504.57 1698.68"/><g class="cls-1"><text class="cls-5" transform="translate(577.19 1911.01)">Font: Segoe UI</text><text class="cls-5" transform="translate(577.19 1934.93)">Style: semibold\</text><text class="cls-5" transform="translate(577.19 1958.85)"><tspan xml:space="preserve">size:  34 pt</tspan></text></g><polygon class="cls-4" points="566.5 1922.38 540.58 1930.67 533.26 1930.67 556.55 1923.21 157.75 1923.21 157.75 1921.55 556.55 1921.55 533.26 1914.1 540.58 1914.1 566.5 1922.38"/><polygon class="cls-4" points="242.08 1542.75 239.7 1546.6 239.03 1546.6 241.17 1543.13 204.55 1543.13 204.55 1542.36 241.17 1542.36 239.03 1538.9 239.7 1538.9 242.08 1542.75"/><g class="cls-1"><text class="cls-6" transform="translate(211.81 1975.05)">Font: Segoe UI</text><text class="cls-6" transform="translate(211.81 2001.01)">Style: regular</text><text class="cls-6" transform="translate(211.81 2026.97)"><tspan xml:space="preserve">size:  30 pt</tspan></text></g><polygon class="cls-4" points="195.66 1992.97 193.28 1996.83 192.61 1996.83 194.75 1993.36 158.13 1993.36 158.13 1992.59 194.75 1992.59 192.61 1989.12 193.28 1989.12 195.66 1992.97"/><g class="cls-1"><text class="cls-6" transform="translate(1032.9 2196.07)">Font: Segoe UI</text><text class="cls-6" transform="translate(1032.9 2222.02)">Style: light</text><text class="cls-6" transform="translate(1032.9 2247.99)"><tspan xml:space="preserve">size:  30 pt</tspan></text></g><polygon class="cls-4" points="1022.82 2206.2 1018.95 2212.47 1017.86 2212.47 1021.34 2206.82 961.73 2206.82 961.73 2205.57 1021.34 2205.57 1017.86 2199.93 1018.95 2199.93 1022.82 2206.2"/><g class="cls-1"><text class="cls-6" transform="translate(293.26 1789.29)">Font: Segoe UI</text><text class="cls-6" transform="translate(293.26 1815.25)">Style: bold</text><text class="cls-6" transform="translate(293.26 1841.21)"><tspan xml:space="preserve">size:  36 pt</tspan></text></g><g class="cls-1"><text class="cls-6" transform="translate(1416.46 2099.2)">Font: Segoe UI</text><text class="cls-6" transform="translate(1416.46 2125.16)">Style: bold</text><text class="cls-6" transform="translate(1416.46 2151.12)"><tspan xml:space="preserve">size:  36 pt</tspan></text></g><polyline class="cls-7" points="208.91 1728.13 244.24 1728.13 244.24 1863.45 208.91 1863.45"/><polygon class="cls-4" points="281.76 1808.51 279.38 1812.36 278.71 1812.36 280.85 1808.89 244.24 1808.89 244.24 1808.12 280.85 1808.12 278.71 1804.66 279.38 1804.66 281.76 1808.51"/><polygon class="cls-4" points="777.76 1276.41 749.86 1284.7 741.98 1284.7 767.06 1277.24 337.7 1277.24 337.7 1275.59 767.06 1275.59 741.98 1268.13 749.86 1268.13 777.76 1276.41"/><polygon class="cls-4" points="1077.28 1315.22 1048.37 1323.51 1040.21 1323.51 1066.19 1316.05 621.38 1316.05 621.38 1314.39 1066.19 1314.39 1040.21 1306.94 1048.37 1306.94 1077.28 1315.22"/><g class="cls-1"><text class="cls-8" transform="translate(1462.48 673.14)">Font: Segoe UI</text><text class="cls-8" transform="translate(1462.48 719.9)">Style: regular</text><text class="cls-8" transform="translate(1462.48 766.66)"><tspan xml:space="preserve">size:  25 pt</tspan></text></g><g class="cls-1"><text class="cls-9" transform="translate(802.53 1242.37)">Font: Segoe UI</text><text class="cls-9" transform="translate(802.53 1268.14)">Style: semi bold</text><text class="cls-9" transform="translate(802.53 1293.9)"><tspan xml:space="preserve">size:  34 pt</tspan></text></g><g class="cls-1"><text class="cls-9" transform="translate(1099.17 1297.74)">Font: Segoe UI</text><text class="cls-9" transform="translate(1099.17 1323.51)">Style: regular</text><text class="cls-9" transform="translate(1099.17 1349.28)"><tspan xml:space="preserve">size:  30 pt</tspan></text></g><polyline class="cls-10" points="1279.57 251.53 1314.9 251.53 1314.9 1170.25 1279.57 1170.25"/><polygon class="cls-4" points="1445.24 710.88 1436.95 719.17 1434.61 719.17 1442.06 711.71 1314.49 711.71 1314.49 710.05 1442.06 710.05 1434.61 702.6 1436.95 702.6 1445.24 710.88"/><text class="cls-11" transform="translate(14.78 204.36)">Qashqai Wool Handmade Kilim</text><text class="cls-11" transform="translate(14.78 151.5)">Hersyen Wool Handmade Kilim</text><text class="cls-11" transform="translate(14.78 101.11)">Balochy Wool Handmade Kilim</text><text class="cls-11" transform="translate(14.78 42.85)">Heritage Wool Handmade Kilim</text><text class="cls-12" transform="translate(14.78 982.68)"><tspan xml:space="preserve">Our  Kilim is hand-loomed Egyptian Wool which is all 100% handmade. This piece comes from our upper </tspan><tspan x="0" y="30">Egypt collection which was made as a tribute to this region where our beloved village of Assiut is located. </tspan><tspan x="0" y="60">That is shaped like a triangle, for this reason the triangle was the main design element used in. The form was </tspan><tspan x="0" y="90">manipulated to create traditional motifs. Purchasing this product allows us to continue our mission of reviv-</tspan><tspan x="0" y="120">ing and susaining local crafts and empowering their communities. The artisans who made this product are </tspan><tspan x="0" y="150">making fair wages and preserving Egyptian cultural.</tspan></text><text class="cls-12" transform="translate(14.77 775.11)"><tspan xml:space="preserve">Our  Kilim is hand-loomed Egyptian Wool which is all 100% handmade. A colorful Egyptian hung bright on </tspan><tspan x="0" y="30">famed French Artis Henri Matisse’s window. His love for textiles, and specifcally this design, a decorative col-</tspan><tspan x="0" y="60">lage of sewn together fragments of fabric. Which became icons of 20th century art through this collection of </tspan><tspan x="0" y="90">Kilims. The artisans who made this product are making fair wages and preserving Egyptian cultural heritage </tspan><tspan x="0" y="120">by practicing a craft that has been passed down to them generation to generation. Purchasing this product </tspan><tspan x="0" y="150">allows us to continue our mission of reviving and susaining local crafts.</tspan></text><text class="cls-12" transform="translate(14.78 545.73)"><tspan xml:space="preserve">Our  Kilim is hand-loomed Egyptian Wool which is all 100% handmade. This piece comes from our geometric </tspan><tspan x="0" y="30">collection, so it was important that tribute was given to the traditional kilims that Assiut artisans were accus-</tspan><tspan x="0" y="60">tomed to crafting. The designs from this collection updated them by reducing the amount of colors used, as </tspan><tspan x="0" y="90">well as repeating the shapes to create more uniform patterns to add a sense of modernity. The artisans who </tspan><tspan x="0" y="120">made this product are making fair wages and preserving Egyptian cultural heritage by practicing a craft that </tspan><tspan x="0" y="150">has been passed down to them generation to generation.</tspan></text><text class="cls-12" transform="translate(14.77 322.95)">Our Kilim is hand-loomed Egyptian Wool which is all 100% handmade. This piece comes from our Botanical <tspan x="0" y="30">collection. The motifs were designed by adapting the organic forms of various plants with geometrical, cultur-</tspan><tspan x="0" y="60">al, and folkloric motifs.Some of these were inspired by motifs from classic Persian which carry symbolic mean-</tspan><tspan x="0" y="90">ings. The artisans who made this product are making fair wages and preserving Egyptian cultural heritage by </tspan><tspan x="0" y="120">practicing a craft that has been passed down to them generation to generation. Purchasing this product </tspan><tspan x="0" y="150">allows us to continue our mission of reviving and susaining local crafts and empowering their communities. </tspan></text><text class="cls-13" transform="translate(20.06 1287.59)">Care insructions: <tspan class="cls-14"><tspan x="0" y="36">Dry clean - cold water hand wash - no dryer</tspan></tspan></text><text class="cls-13" transform="translate(17.06 1557.77)"> <tspan class="cls-14"><tspan x="0" y="36">70x135 cm</tspan></tspan></text><text class="cls-15" x="-53.84" y="-78.23"><tspan x="17.06" y="1561.32">70x145 cm</tspan></text><text class="cls-15" x="-53.84" y="-78.23"><tspan x="17.06" y="1529.64">70x120 cm</tspan></text><text class="cls-13" transform="translate(17.06 1455.48)">Size: <tspan class="cls-14"><tspan x="0" y="36">70x145 cm</tspan></tspan></text><text class="cls-13" transform="translate(2.03 1813.47)"> <tspan class="cls-16"><tspan x="0" y="43.2">635.00 EGP</tspan></tspan></text><text class="cls-13" transform="translate(2.03 1781.16)"> <tspan class="cls-16"><tspan x="0" y="43.2">795.00 EGP</tspan></tspan></text><text class="cls-17" x="-53.84" y="-78.23"><tspan x="0" y="1788">570.00 EGP</tspan></text><text class="cls-13" transform="translate(1 1712.47)">Price: <tspan class="cls-16"><tspan x="0" y="43.2">880.00 EGP</tspan></tspan></text><text class="cls-13" transform="translate(6.39 1931.91)">Quantity:<tspan class="cls-18" x="142.06" y="0"> </tspan></text><text class="cls-15" transform="translate(108.65 2002.26)">+</text><text class="cls-15" transform="translate(22.95 2001.86)">-</text><text class="cls-15" transform="translate(66.93 2004.05)">1</text><rect class="cls-19" x="7.39" y="1973.17" width="44.87" height="39.62"/><rect class="cls-19" x="52.25" y="1973.17" width="44.87" height="39.62"/><rect class="cls-19" x="97.12" y="1973.17" width="44.87" height="39.62"/><rect class="cls-19" x="7.39" y="1973.17" width="134.6" height="39.62"/><rect class="cls-20" y="2089.46" width="1179.68" height="70.57"/><text class="cls-21" transform="translate(505.72 2137.01)">Checkout</text><text class="cls-22" transform="translate(213.92 2210.53)">Shipping, taxes and discount codes calculated at checkout.</text><polygon class="cls-4" points="1376.92 2125.16 1333.3 2138.03 1320.98 2138.03 1360.19 2126.44 688.89 2126.44 688.89 2123.87 1360.19 2123.87 1320.98 2112.3 1333.3 2112.3 1376.92 2125.16"/></svg>