<svg id="Layer_1" data-name="Layer 1" xmlns="http://www.w3.org/2000/svg" viewBox="0 0 79.51 60.16"><defs><style>.cls-1{fill:#03243b;}</style></defs><title>cart icon</title><path class="cls-1" d="M942.64,506l0,.08.11.29.73,2.07.62,1.7h42.27L970.6,529.46H951.08l.13.37.74,2.07.61,1.71h20L995.16,506Z" transform="translate(-915.64 -482.64)"/><polygon class="cls-1" points="57.44 56.01 57.44 60.16 35.82 60.16 32.29 50.34 31.86 49.12 30.65 45.77 29.01 41.2 27.7 37.53 24.23 27.85 24.09 27.47 23.48 25.77 23.14 24.82 22.72 23.7 22.59 23.33 15.53 4.15 0 4.15 0 0 18.43 0 27 23.33 27.03 23.41 27.14 23.7 27.88 25.77 28.5 27.47 28.63 27.85 35.43 46.82 35.57 47.19 36.31 49.26 36.91 50.97 37.05 51.34 38.73 56.01 57.44 56.01"/></svg>