<svg id="Layer_1" data-name="Layer 1" xmlns="http://www.w3.org/2000/svg" viewBox="0 0 83.66 35.14"><defs><style>.cls-1{fill:#fff;}.cls-2{fill:#c7202f;}.cls-3{fill:#232c65;}.cls-4{fill:#00233d;}</style></defs><title>England flag</title><rect class="cls-1" x="0.03" y="0.03" width="59.16" height="35.06"/><path class="cls-2" d="M923.82,514H897.14v-7H923.8v-14h5.9v13.41c0,.63,0,.63.53.63h26.12v7H930.22c-.52,0-.52,0-.52.64V528h-5.88Z" transform="translate(-897.1 -492.9)"/><path class="cls-3" d="M921.79,503.6,903.9,493l0-.08h17.86Z" transform="translate(-897.1 -492.9)"/><path class="cls-3" d="M921.8,517.33V528h-18Z" transform="translate(-897.1 -492.9)"/><path class="cls-3" d="M949.59,493,931.72,503.6V492.93h17.85Z" transform="translate(-897.1 -492.9)"/><path class="cls-3" d="M931.72,528V517.34l18,10.65Z" transform="translate(-897.1 -492.9)"/><path class="cls-2" d="M897.23,528l.37-.26,18.9-11.18a1.8,1.8,0,0,1,.81-.23c1.24,0,2.47,0,3.83,0a3.4,3.4,0,0,1-.35.27l-19.11,11.33a.74.74,0,0,1-.35.1h-3.87Z" transform="translate(-897.1 -492.9)"/><path class="cls-3" d="M897.12,504.59v-7.74L910,504.5l0,.09Z" transform="translate(-897.1 -492.9)"/><path class="cls-3" d="M897.12,524.09v-7.73H910l0,.08Z" transform="translate(-897.1 -492.9)"/><path class="cls-2" d="M932.36,504.57l.43-.28,19-11.26a.78.78,0,0,1,.34-.12h4.16a3.28,3.28,0,0,1-.38.27q-9.49,5.64-19,11.26a1,1,0,0,1-.5.17h-3.79Z" transform="translate(-897.1 -492.9)"/><path class="cls-3" d="M956.35,516.37v7.7l-12.88-7.63v-.07Z" transform="translate(-897.1 -492.9)"/><path class="cls-3" d="M956.35,496.87v7.72H943.5l0-.08Z" transform="translate(-897.1 -492.9)"/><path class="cls-2" d="M897.11,492.92l19.52,11.57c0,.06,0,.1-.06.1-1.32,0-2.64,0-4,0a.87.87,0,0,1-.42-.16l-14.78-8.74a.57.57,0,0,1-.31-.59C897.12,494.41,897.11,493.7,897.11,492.92Z" transform="translate(-897.1 -492.9)"/><path class="cls-2" d="M936.89,516.33a15.69,15.69,0,0,0,1.94,0,6.45,6.45,0,0,1,4.22,1.17c4.29,2.63,8.62,5.14,12.94,7.69a.69.69,0,0,1,.39.72c0,.66,0,1.32,0,2.1l-19.5-11.55Z" transform="translate(-897.1 -492.9)"/><path class="cls-4" d="M980.76,511.12,966.37,518v-3l10.54-4.69v-.09L966.37,505v-3.06l14.39,7.49Z" transform="translate(-897.1 -492.9)"/></svg>