<svg id="Layer_1" data-name="Layer 1" xmlns="http://www.w3.org/2000/svg" viewBox="0 0 1322.47 451.79"><defs><style>.cls-1,.cls-2{isolation:isolate;}.cls-2{font-size:16px;font-family:ArialMT, Arial;}.cls-3,.cls-5{fill:none;stroke:#000;stroke-miterlimit:10;}.cls-3{stroke-width:2.5px;}.cls-4{fill:#202020;}.cls-5{stroke-width:1.63px;}.cls-6{font-size:49px;fill:#ec1c24;font-family:SegoeUI-Bold, Segoe UI;font-weight:700;}.cls-7,.cls-8{font-size:30px;}.cls-7,.cls-8,.cls-9{fill:#00233d;}.cls-7{font-family:SegoeUI, Segoe UI;font-weight:400;}.cls-8,.cls-9{font-family:SegoeUI-Semibold, Segoe UI;font-weight:600;}.cls-9{font-size:31px;}</style></defs><title>Help TEXT  German</title><g class="cls-1"><text class="cls-2" transform="translate(1213.98 18.02)">Font: Segoe UI</text><text class="cls-2" transform="translate(1213.98 37.22)">Style: bold</text><text class="cls-2" transform="translate(1213.98 56.42)"><tspan xml:space="preserve">size:  49 pt</tspan></text></g><g class="cls-1"><text class="cls-2" transform="translate(1213.98 139.4)">Font: Segoe UI</text><text class="cls-2" transform="translate(1213.98 158.6)">Style: semibold</text><text class="cls-2" transform="translate(1213.98 177.8)"><tspan xml:space="preserve">size:  30 pt</tspan></text></g><polyline class="cls-3" points="1026.87 56.42 1062.2 56.42 1062.2 257.32 1026.87 257.32"/><polygon class="cls-4" points="1193.96 27.4 1186.43 34.93 1184.3 34.93 1191.07 28.16 211.16 28.16 211.16 26.65 1191.07 26.65 1184.3 19.87 1186.43 19.87 1193.96 27.4"/><g class="cls-1"><text class="cls-2" transform="translate(1213.98 296.97)">Font: Segoe UI</text><text class="cls-2" transform="translate(1213.98 316.17)">Style: bold</text><text class="cls-2" transform="translate(1213.98 335.37)"><tspan xml:space="preserve">size:  49 pt</tspan></text></g><polygon class="cls-4" points="1193.96 310.36 1186.43 317.89 1184.3 317.89 1191.07 311.11 211.16 311.11 211.16 309.6 1191.07 309.6 1184.3 302.82 1186.43 302.82 1193.96 310.36"/><polygon class="cls-4" points="1192.54 146.74 1184.25 155.03 1181.91 155.03 1189.36 147.57 1061.79 147.57 1061.79 145.91 1189.36 145.91 1181.91 138.46 1184.25 138.46 1192.54 146.74"/><g class="cls-1"><text class="cls-2" transform="translate(1199.28 398.97)">Font: Segoe UI</text><text class="cls-2" transform="translate(1199.28 418.17)">Style: semibold</text><text class="cls-2" transform="translate(1199.28 437.37)"><tspan xml:space="preserve">size:  31 pt</tspan></text></g><polyline class="cls-5" points="1013.18 365.66 1048.5 365.66 1048.5 450.97 1013.18 450.97"/><polygon class="cls-4" points="1178.96 409.31 1170.67 417.6 1168.33 417.6 1175.78 410.14 1048.21 410.14 1048.21 408.48 1175.78 408.48 1168.33 401.03 1170.67 401.03 1178.96 409.31"/><text class="cls-6" transform="translate(1 41.65)">Versand<tspan class="cls-7"><tspan x="0" y="36"> </tspan></tspan></text><text class="cls-8" transform="translate(1.65 92.62)">Alle lokalen Besellungen werden innerhalb von 2-5 Tagen bearbeitet <tspan x="0" y="36">und versendet. (Dies sind die Tage von Sonntag bis Donnersag und bein-</tspan><tspan x="0" y="72">halten keine Feiertage)</tspan><tspan x="0" y="108">Im Falle einer Verzögerung bei der Lieferung Ihrer Besellung kontaktie-</tspan><tspan x="0" y="144" xml:space="preserve">ren Sie  unser bitte unter am support@assiuthandmadekilim.com</tspan></text><text class="cls-6" transform="translate(0 331.54)">Zahlung</text><text class="cls-9" transform="translate(0.44 394.22) scale(0.97 1)">Wir akzeptieren alle Sachen für Kreditkarten über unser Zahlungsportal.<tspan x="0" y="37.2">Wir akzeptieren auch Barzahlung beim unserLieferung der Besellung. </tspan></text></svg>