<svg id="Layer_1" data-name="Layer 1" xmlns="http://www.w3.org/2000/svg" viewBox="0 0 1330.09 461.05"><defs><style>.cls-1{font-size:16px;font-family:MyriadPro-Regular, Myriad Pro;}.cls-2,.cls-4{fill:none;stroke:#000;stroke-miterlimit:10;}.cls-2{stroke-width:2.38px;}.cls-3{fill:#202020;}.cls-4{stroke-width:1.63px;}.cls-5{font-size:47px;fill:#ec1c24;font-family:SegoeUI-Bold, Segoe UI;font-weight:700;}.cls-6{font-size:30px;font-family:SegoeUI, Segoe UI;font-weight:400;}.cls-6,.cls-7{fill:#00233d;}.cls-7{font-size:33px;font-family:SegoeUI-Semibold, Segoe UI;font-weight:600;}</style></defs><title>Help TEXT ( font-family-size )</title><text class="cls-1" transform="translate(1228.35 21.12)">Font: Segoe UI<tspan x="0" y="19.2">Style: bold</tspan><tspan x="0" y="38.4" xml:space="preserve">size:  47 pt</tspan></text><text class="cls-1" transform="translate(1228.35 163.5)">Font: Segoe UI<tspan x="0" y="19.2">Style: semibold</tspan><tspan x="0" y="38.4" xml:space="preserve">size:  33 pt</tspan></text><polyline class="cls-2" points="1041.24 78.2 1076.57 78.2 1076.57 260.42 1041.24 260.42"/><polygon class="cls-3" points="1208.33 30.5 1200.8 38.03 1198.67 38.03 1205.44 31.26 225.53 31.26 225.53 29.75 1205.44 29.75 1198.67 22.97 1200.8 22.97 1208.33 30.5"/><text class="cls-1" transform="translate(1228.35 300.07)">Font: Segoe UI<tspan x="0" y="19.2">Style: bold</tspan><tspan x="0" y="38.4" xml:space="preserve">size:  47 pt</tspan></text><polygon class="cls-3" points="1208.33 313.46 1200.8 320.99 1198.67 320.99 1205.44 314.21 225.53 314.21 225.53 312.7 1205.44 312.7 1198.67 305.92 1200.8 305.92 1208.33 313.46"/><polygon class="cls-3" points="1206.91 170.84 1198.62 179.13 1196.28 179.13 1203.73 171.67 1076.16 171.67 1076.16 170.01 1203.73 170.01 1196.28 162.56 1198.62 162.56 1206.91 170.84"/><text class="cls-1" transform="translate(1228.65 382.07)">Font: Segoe UI<tspan x="0" y="19.2">Style: semibold</tspan><tspan x="0" y="38.4" xml:space="preserve">size:  33 pt</tspan></text><polyline class="cls-4" points="1042.55 348.76 1077.87 348.76 1077.87 434.07 1042.55 434.07"/><polygon class="cls-3" points="1208.33 392.41 1200.04 400.7 1197.7 400.7 1205.15 393.24 1077.58 393.24 1077.58 391.58 1205.15 391.58 1197.7 384.13 1200.04 384.13 1208.33 392.41"/><text class="cls-5" transform="translate(6 39.95)">Shipping<tspan class="cls-6"><tspan x="0" y="36"> </tspan></tspan></text><text class="cls-7" transform="translate(3 388.19)">We accept all Kinds credit cards using our payment gateways.<tspan x="0" y="39.6">We also accept cash payment upon your order deliver.</tspan></text><text class="cls-7" transform="translate(4 102.62)">All local orders are processed and shipped within 2-5 days. (These <tspan x="0" y="39.6">are the days between Sunday through Thursday and do not in-</tspan><tspan x="0" y="79.2">clude public holidays and weekends)</tspan><tspan x="0" y="118.8">In case of any delay in the delivery of your order, please contact us </tspan><tspan x="0" y="158.4">at support@assiuthandmadekilim.com </tspan></text><text class="cls-5" transform="translate(0 326.82)">Payment</text></svg>