<svg id="Layer_1" data-name="Layer 1" xmlns="http://www.w3.org/2000/svg" xmlns:xlink="http://www.w3.org/1999/xlink" viewBox="0 0 753.7 949.81"><defs><style>.cls-1{fill:none;}.cls-2{fill:#fbae17;}.cls-3{fill:url(#sss_2);}</style><pattern id="sss_2" data-name="sss 2" width="88.37" height="85.1" patternTransform="translate(-1874.76 -380.65) scale(1.04 1.01)" patternUnits="userSpaceOnUse" viewBox="0 0 88.37 85.1"><rect class="cls-1" width="88.37" height="85.1"/><polygon class="cls-2" points="88.37 51.56 69.67 51.56 78.59 60.48 60.06 60.48 68.35 68.75 53.35 68.75 61.52 76.93 48.73 76.93 48.81 77 56.9 85.1 31.46 85.1 39.57 77 39.64 76.93 26.84 76.93 35.02 68.75 20.02 68.75 28.01 60.76 28.3 60.48 9.78 60.48 18.7 51.56 0 51.56 9.01 42.55 0 33.54 18.7 33.54 9.78 24.62 28.3 24.62 28.01 24.34 20.02 16.34 35.02 16.34 26.84 8.18 39.51 8.18 39.51 8.12 31.39 0 56.83 0 48.73 8.1 48.66 8.17 48.66 8.18 61.52 8.18 53.35 16.34 68.35 16.34 60.35 24.34 60.06 24.62 78.59 24.62 69.67 33.54 88.37 33.54 79.35 42.55 88.37 51.56"/></pattern></defs><title>help (pattern)</title><rect class="cls-3" width="753.7" height="949.81"/></svg>