<?xml version="1.0" encoding="utf-8"?>
<!-- Generator: Adobe Illustrator 24.0.1, SVG Export Plug-In . SVG Version: 6.00 Build 0)  -->
<svg version="1.1" id="Layer_1" xmlns="http://www.w3.org/2000/svg" xmlns:xlink="http://www.w3.org/1999/xlink" x="0px" y="0px"
	 viewBox="0 0 684 562.2" style="enable-background:new 0 0 684 562.2;" xml:space="preserve">
<style type="text/css">
	.st0{fill:#00233D;}
	.st1{font-family:'SegoeUI-Semibold';}
	.st2{font-size:29px;}
	.st3{font-family:'ArialMT';}
	.st4{font-size:16px;}
	.st5{font-size:13.5205px;}
	.st6{fill:none;stroke:#000000;stroke-width:3.528;stroke-miterlimit:10;}
	.st7{fill:none;stroke:#000000;stroke-width:2.05;stroke-miterlimit:10;}
	.st8{fill:#202020;}
	.st9{font-family:'SegoeUI';}
	.st10{font-size:33px;}
	.st11{font-family:'SegoeUI-Bold';}
	.st12{font-size:15px;}
	.st13{fill:none;}
	.st14{font-size:20px;}
	.st15{fill:#ED1C24;}
	.st16{font-size:67px;}
</style>
<title>Home TEXT ( font-family-size )</title>
<text transform="matrix(0.9969 0 0 1.1 10.04 48.87)" class="st0 st1 st2">Hergesellt in</text>
<rect x="13.6" y="548" class="st0" width="95" height="3"/>
<text transform="matrix(1 0 0 1 558.9 21.79)" class="st3 st4">Font: Segoe UI</text>
<text transform="matrix(1 0 0 1 558.9 40.99)" class="st3 st4">Style: semibold</text>
<text transform="matrix(1 0 0 1 558.9 60.1899)" class="st3 st4">size: 29 pt</text>
<text transform="matrix(1 0 0 1 558.9 107.15)" class="st3 st4">Font: Segoe UI</text>
<text transform="matrix(1 0 0 1 558.9 126.35)" class="st3 st4">Style: bold</text>
<text transform="matrix(1 0 0 1 558.9 145.55)" class="st3 st4">size:  67 pt</text>
<text transform="matrix(1 0 0 1 544.2797 205.5298)" class="st3 st4">Font: Segoe UI</text>
<text transform="matrix(1 0 0 1 544.2797 224.7297)" class="st3 st4">Style: semibold</text>
<text transform="matrix(1 0 0 1 544.2797 243.9297)" class="st3 st4">size:  20 pt</text>
<text transform="matrix(1 0 0 1 558.9 294.73)" class="st3 st4">Font: Segoe UI</text>
<text transform="matrix(1 0 0 1 558.9 313.93)" class="st3 st4">Style: bold</text>
<text transform="matrix(1 0 0 1 558.9 333.13)" class="st3 st4">size:  15 pt</text>
<text transform="matrix(1 0 0 1 558.9004 431.4219)" class="st3 st5">Font: Segoe UI</text>
<text transform="matrix(1 0 0 1 558.9004 447.6465)" class="st3 st5">Style: Regular</text>
<text transform="matrix(1 0 0 1 558.9004 463.8711)" class="st3 st5">size:  33 pt</text>
<polyline class="st6" points="436,8.6 471.3,8.6 471.3,551.6 436,551.6 "/>
<polyline class="st7" points="179.4,351.5 214.4,351.5 214.4,536.6 179.4,536.6 "/>
<polygon class="st8" points="544.3,36.1 536.3,44.1 534.1,44.1 541.2,36.9 231.1,36.9 231.1,35.3 541.2,35.3 534.1,28.2 536.3,28.2 
	"/>
<polygon class="st8" points="544.3,123.3 536.3,131.2 534.1,131.2 541.2,124.1 231.1,124.1 231.1,122.5 541.2,122.5 534.1,115.4 
	536.3,115.4 "/>
<polygon class="st8" points="544.3,304.3 536.3,312.3 534.1,312.3 541.2,305.1 158.7,305.1 158.7,303.5 541.2,303.5 534.1,296.4 
	536.3,296.4 "/>
<polygon class="st8" points="544.3,439.9 536.3,447.8 534.1,447.8 541.2,440.7 213.8,440.7 213.8,439.1 541.2,439.1 534.1,431.9 
	536.3,431.9 "/>
<polygon class="st8" points="542.9,216.5 534.9,224.5 532.7,224.5 539.8,217.3 423,217.3 423,215.7 539.8,215.7 532.7,208.6 
	534.9,208.6 "/>
<text transform="matrix(0.9909 0 0 1 13.8589 373.4103)" class="st0 st9 st10">Startseite</text>
<text transform="matrix(1 0 0 1 13.8589 413.3654)" class="st0 st9 st10">Über  </text>
<text transform="matrix(0.9561 0 0 1 8.8213 452.2606)" class="st0 st9 st10">Produkte </text>
<text transform="matrix(1 0 0 1 8.8212 488.4154)" class="st0 st9 st10">Hilfe </text>
<text transform="matrix(1 0 0 1 8.821 522.2101)" class="st0 st9 st10">Anmeldung </text>
<text transform="matrix(1 0 0 1.07 13.8589 309.7354)" class="st0 st11 st12">Jetzt Einkaufen</text>
<rect x="8.5" y="164.9" class="st13" width="380.4" height="110.2"/>
<text transform="matrix(1 0 0 1 8.5225 178.6933)"><tspan x="0" y="0" class="st0 st1 st14">Der erse online Shop, in dem man Assiut </tspan><tspan x="0" y="28" class="st0 st1 st14">handgefertigte Kilim in Ägypten kaufen </tspan><tspan x="0" y="56" class="st0 st1 st14">kann. Wir bieten eine einzigartige Sammlu-</tspan><tspan x="0" y="84" class="st0 st1 st14">ng von modernen und klassischen Kilim.</tspan></text>
<text transform="matrix(0.9969 0 0 1 10.0403 131.2302)" class="st15 st11 st16">Assiut</text>
</svg>
