<svg id="Layer_1" data-name="Layer 1" xmlns="http://www.w3.org/2000/svg" xmlns:xlink="http://www.w3.org/1999/xlink" viewBox="0 0 1282.5 950.25"><defs><style>.cls-1{fill:none;}.cls-2{fill:#00233d;}.cls-3{fill:#fbae17;}.cls-4{fill:#fcfdff;}.cls-5{fill:#ec1c24;}.cls-6{fill:url(#aswwwwwww);}</style><pattern id="aswwwwwww" data-name="aswwwwwww" width="379.57" height="243.69" patternTransform="matrix(-0.99, 0, 0, 1, -195.82, -2839.77)" patternUnits="userSpaceOnUse" viewBox="0 0 379.57 243.69"><rect class="cls-1" width="379.57" height="243.69"/><polygon class="cls-2" points="506.1 269.49 452.56 269.49 478.1 295.03 425.05 295.03 448.77 318.74 405.82 318.74 429.21 342.15 392.59 342.15 392.81 342.35 416 365.54 343.14 365.54 366.36 342.35 366.56 342.15 329.92 342.15 353.33 318.74 310.38 318.74 333.27 295.84 334.08 295.03 281.05 295.03 306.59 269.49 253.05 269.49 278.84 243.71 253.05 217.9 306.59 217.9 281.05 192.36 334.08 192.36 333.27 191.55 310.38 168.65 353.33 168.65 329.92 145.26 366.2 145.26 366.2 145.1 342.94 121.85 415.78 121.85 392.59 145.04 392.39 145.24 392.39 145.26 429.21 145.26 405.82 168.65 448.77 168.65 425.88 191.55 425.05 192.36 478.1 192.36 452.56 217.9 506.1 217.9 480.29 243.71 506.1 269.49"/><polygon class="cls-3" points="471.68 243.7 379.57 335.81 287.47 243.7 379.57 151.59 471.68 243.7"/><polygon class="cls-4" points="456.33 243.7 379.57 320.45 302.82 243.7 379.57 166.94 456.33 243.7"/><polygon class="cls-5" points="440.98 242.81 379.57 304.22 318.17 242.81 379.57 181.41 440.98 242.81"/><path class="cls-2" d="M412.36,243.7l-33,33-2.48-2.49,7.07-7.09-11.64,2.53-.16,0H372l.09-.06.09-.09,11.62-11.62-11.24.56,10.68-10.66-8.33.5.47-8.33-10.65,10.65.53-11.23L353.69,251l-.05,0-.13.13,0-.18,0-.11,2.53-11.64-7.08,7.1-2.66-2.67,33-33,2.71,2.71-6.85,6.85,11.28-2.42.25.25-11.42,11.39,11.26-.56-10.65,10.66,8.28-.5-.47,8.26,10.63-10.65-.51,11.21,11.35-11.35.26.27-2.41,11.22,6.8-6.83Z"/><polygon class="cls-3" points="412.36 243.71 379.36 276.7 376.88 274.21 383.95 267.12 372.31 269.65 372.2 269.54 383.82 257.92 372.58 258.48 383.26 247.82 374.93 248.32 375.4 239.99 364.75 250.64 365.28 239.41 353.69 251.02 353.58 250.91 356.11 239.27 349.03 246.37 346.37 243.71 379.36 210.71 382.07 213.42 375.22 220.27 386.5 217.85 386.75 218.1 375.33 229.49 386.59 228.93 375.94 239.59 384.22 239.09 383.75 247.35 394.38 236.7 393.87 247.91 405.21 236.56 405.48 236.83 403.07 248.05 409.87 241.22 412.36 243.71"/><polygon class="cls-1" points="412.36 244 379.95 276.67 376.94 273.7 376.88 273.77 372.29 269.23 363.69 260.76 362.66 259.73 354.06 251.25 349.46 246.72 349.59 246.6 346.37 243.4 378.8 210.71 382 213.86 382.14 213.72 386.74 218.27 395.29 226.68 395.31 226.66 404.94 236.17 409.54 240.7 409.29 240.95 412.36 244"/><path class="cls-2" d="M425.63,243.7l-46.07,46.05-46-46.05,46-46.06Zm-13.27,0-2.49-2.48-6.8,6.83,2.41-11.22-.26-.27-11.35,11.35.51-11.21-10.63,10.65.47-8.26-8.28.5,10.65-10.66-11.26.56,11.42-11.39-.25-.25-11.28,2.42,6.85-6.85-2.71-2.71-33,33,2.66,2.67,7.08-7.1-2.53,11.64,0,.11,0,.18.13-.13.05,0,11.59-11.61-.53,11.23L375.4,240l-.47,8.33,8.33-.5-10.68,10.66,11.24-.56L372.2,269.54l-.09.09-.09.06h.13l.16,0L384,267.12l-7.07,7.09,2.48,2.49Z"/><polygon class="cls-2" points="126.53 269.49 72.98 269.49 98.52 295.03 45.47 295.03 69.2 318.74 26.25 318.74 49.64 342.15 13.02 342.15 13.24 342.35 36.43 365.54 -36.43 365.54 -13.22 342.35 -13.02 342.15 -49.66 342.15 -26.25 318.74 -69.2 318.74 -46.3 295.84 -45.49 295.03 -98.52 295.03 -72.98 269.49 -126.53 269.49 -100.74 243.71 -126.53 217.9 -72.98 217.9 -98.52 192.36 -45.49 192.36 -46.3 191.55 -69.2 168.65 -26.25 168.65 -49.66 145.26 -13.37 145.26 -13.37 145.1 -36.63 121.85 36.21 121.85 13.02 145.04 12.81 145.24 12.81 145.26 49.64 145.26 26.25 168.65 69.2 168.65 46.3 191.55 45.47 192.36 98.52 192.36 72.98 217.9 126.53 217.9 100.72 243.71 126.53 269.49"/><polygon class="cls-3" points="92.1 243.7 0 335.81 -92.11 243.7 0 151.59 92.1 243.7"/><polygon class="cls-4" points="76.75 243.7 0 320.45 -76.76 243.7 0 166.94 76.75 243.7"/><polygon class="cls-5" points="61.4 242.81 0 304.22 -61.41 242.81 0 181.41 61.4 242.81"/><path class="cls-2" d="M32.78,243.7l-33,33-2.49-2.49,7.08-7.09-11.64,2.53-.16,0h-.13l.08-.06.09-.09L4.24,257.92-7,258.48,3.68,247.82l-8.32.5.47-8.33-10.66,10.65.54-11.23L-25.89,251l0,0-.14.13L-26,251l0-.11,2.53-11.64-7.07,7.1-2.67-2.67,33-33,2.71,2.71-6.85,6.85,11.28-2.42.24.25L-4.24,229.49,7,228.93-3.64,239.59l8.28-.5-.47,8.26L14.81,236.7l-.52,11.21,11.35-11.35.27.27-2.42,11.22,6.81-6.83Z"/><polygon class="cls-3" points="32.78 243.71 -0.21 276.7 -2.7 274.21 4.38 267.12 -7.26 269.65 -7.38 269.54 4.24 257.92 -7 258.48 3.68 247.82 -4.64 248.32 -4.17 239.99 -14.83 250.64 -14.29 239.41 -25.89 251.02 -26 250.91 -23.47 239.27 -30.54 246.37 -33.21 243.71 -0.21 210.71 2.5 213.42 -4.35 220.27 6.93 217.85 7.17 218.1 -4.24 229.49 7.02 228.93 -3.64 239.59 4.64 239.09 4.17 247.35 14.81 236.7 14.29 247.91 25.64 236.56 25.91 236.83 23.49 248.05 30.3 241.22 32.78 243.71"/><polygon class="cls-1" points="32.78 244 0.38 276.67 -2.63 273.7 -2.69 273.77 -7.29 269.23 -15.88 260.76 -16.92 259.73 -25.51 251.25 -30.11 246.72 -29.99 246.6 -33.2 243.4 -0.78 210.71 2.42 213.86 2.56 213.72 7.16 218.27 15.72 226.68 15.74 226.66 25.36 236.17 29.96 240.7 29.71 240.95 32.78 244"/><path class="cls-2" d="M46.05,243.7,0,289.75-46,243.7,0,197.64Zm-13.27,0-2.48-2.48-6.81,6.83,2.42-11.22-.27-.27L14.29,247.91l.52-11.21L4.17,247.35l.47-8.26-8.28.5L7,228.93l-11.26.56L7.17,218.1l-.24-.25-11.28,2.42,6.85-6.85-2.71-2.71-33,33,2.67,2.67,7.07-7.1L-26,250.91l0,.11-.05.18.14-.13,0,0,11.6-11.61-.54,11.23L-4.17,240l-.47,8.33,8.32-.5L-7,258.48l11.24-.56L-7.38,269.54l-.09.09-.08.06h.13l.16,0,11.64-2.53-7.08,7.09,2.49,2.49Z"/><polygon class="cls-2" points="506.1 25.8 452.56 25.8 478.1 51.34 425.05 51.34 448.77 75.04 405.82 75.04 429.21 98.46 392.59 98.46 392.81 98.66 416 121.85 343.14 121.85 366.36 98.66 366.56 98.46 329.92 98.46 353.33 75.04 310.38 75.04 333.27 52.14 334.08 51.34 281.05 51.34 306.59 25.8 253.05 25.8 278.84 0.01 253.05 -25.8 306.59 -25.8 281.05 -51.34 334.08 -51.34 333.27 -52.14 310.38 -75.04 353.33 -75.04 329.92 -98.43 366.2 -98.43 366.2 -98.59 342.94 -121.85 415.78 -121.85 392.59 -98.66 392.39 -98.46 392.39 -98.43 429.21 -98.43 405.82 -75.04 448.77 -75.04 425.88 -52.14 425.05 -51.34 478.1 -51.34 452.56 -25.8 506.1 -25.8 480.29 0.01 506.1 25.8"/><polygon class="cls-3" points="471.68 0.01 379.57 92.11 287.47 0.01 379.57 -92.1 471.68 0.01"/><polygon class="cls-4" points="456.33 0.01 379.57 76.76 302.82 0.01 379.57 -76.75 456.33 0.01"/><polygon class="cls-5" points="440.98 -0.88 379.57 60.52 318.17 -0.88 379.57 -62.28 440.98 -0.88"/><path class="cls-2" d="M412.36,0l-33,33-2.48-2.49,7.07-7.1L372.31,26l-.16.05H372l.09-.07.09-.09,11.62-11.62-11.24.56L383.26,4.13l-8.33.49.47-8.32L364.75,7l.53-11.24L353.69,7.33l-.05,0-.13.13,0-.18,0-.11,2.53-11.64L349,2.67,346.37,0l33-33,2.71,2.71-6.85,6.85,11.28-2.42.25.24L375.33-14.2l11.26-.56L375.94-4.11l8.28-.49-.47,8.26L394.38-7l-.51,11.21L405.22-7.13l.26.27L403.07,4.35l6.8-6.82Z"/><polygon class="cls-3" points="412.36 0.01 379.36 33.01 376.88 30.52 383.95 23.43 372.31 25.95 372.2 25.84 383.82 14.22 372.58 14.79 383.26 4.13 374.93 4.62 375.4 -3.71 364.75 6.95 365.28 -4.29 353.69 7.33 353.58 7.22 356.11 -4.42 349.03 2.67 346.37 0.01 379.36 -32.98 382.07 -30.27 375.22 -23.43 386.5 -25.84 386.75 -25.6 375.33 -14.2 386.59 -14.76 375.94 -4.11 384.22 -4.6 383.75 3.66 394.38 -7 393.87 4.22 405.21 -7.13 405.48 -6.86 403.07 4.35 409.87 -2.47 412.36 0.01"/><polygon class="cls-1" points="412.36 0.31 379.95 32.98 376.94 30.01 376.88 30.07 372.29 25.54 363.69 17.07 362.66 16.04 354.06 7.56 349.46 3.03 349.59 2.9 346.37 -0.29 378.8 -32.99 382 -29.83 382.14 -29.98 386.74 -25.42 395.29 -17.01 395.31 -17.03 404.94 -7.53 409.54 -2.99 409.29 -2.75 412.36 0.31"/><path class="cls-2" d="M425.63,0l-46.07,46-46-46,46-46.06ZM412.36,0l-2.49-2.48-6.8,6.82,2.41-11.21-.26-.27L393.87,4.22,394.38-7,383.75,3.66l.47-8.26-8.28.49,10.65-10.65-11.26.56,11.42-11.4-.25-.24-11.28,2.42,6.85-6.85L379.36-33l-33,33L349,2.67l7.08-7.09L353.58,7.22l0,.11,0,.18.13-.13.05,0L365.28-4.29,364.75,7,375.4-3.7l-.47,8.32,8.33-.49L372.58,14.78l11.24-.56L372.2,25.84l-.09.09L372,26h.13l.16-.05L384,23.42l-7.07,7.1L379.36,33Z"/><polygon class="cls-2" points="316.31 147.64 262.77 147.64 288.31 173.18 235.26 173.18 258.99 196.89 216.03 196.89 239.42 220.3 202.8 220.3 203.03 220.5 226.22 243.69 153.36 243.69 176.57 220.5 176.77 220.3 140.13 220.3 163.54 196.89 120.59 196.89 143.49 173.99 144.29 173.18 91.27 173.18 116.81 147.64 63.26 147.64 89.05 121.86 63.26 96.05 116.81 96.05 91.27 70.51 144.29 70.51 143.49 69.7 120.59 46.8 163.54 46.8 140.13 23.41 176.41 23.41 176.41 23.26 153.16 0 225.99 0 202.8 23.19 202.6 23.39 202.6 23.41 239.42 23.41 216.03 46.8 258.99 46.8 236.09 69.7 235.26 70.51 288.31 70.51 262.77 96.05 316.31 96.05 290.5 121.86 316.31 147.64"/><polygon class="cls-3" points="281.89 121.85 189.79 213.96 97.68 121.85 189.79 29.75 281.89 121.85"/><polygon class="cls-4" points="266.54 121.85 189.79 198.61 113.03 121.85 189.79 45.1 266.54 121.85"/><polygon class="cls-5" points="251.19 120.97 189.79 182.37 128.38 120.97 189.79 59.56 251.19 120.97"/><path class="cls-2" d="M222.57,121.86l-33,33-2.48-2.48,7.07-7.1-11.64,2.53-.15,0h-.14l.09-.07.09-.09L194,136.07l-11.24.56L193.47,126l-8.33.49.47-8.33L175,128.8l.54-11.24-11.6,11.62,0,0-.14.14.05-.18,0-.11,2.53-11.64-7.08,7.09-2.66-2.66,33-33,2.71,2.71-6.85,6.85L196.72,96l.24.25-11.41,11.39,11.25-.56-10.65,10.66,8.28-.49-.47,8.26,10.63-10.66-.51,11.22,11.35-11.35.27.27-2.42,11.21,6.8-6.83Z"/><polygon class="cls-3" points="222.57 121.86 189.57 154.85 187.09 152.37 194.16 145.27 182.52 147.8 182.41 147.69 194.03 136.07 182.79 136.63 193.47 125.98 185.14 126.47 185.61 118.14 174.96 128.8 175.5 117.56 163.9 129.18 163.79 129.06 166.32 117.43 159.25 124.52 156.58 121.86 189.57 88.86 192.28 91.57 185.43 98.42 196.72 96 196.96 96.25 185.55 107.64 196.81 107.08 186.15 117.74 194.43 117.25 193.96 125.51 204.59 114.85 204.08 126.07 215.43 114.72 215.7 114.99 213.28 126.2 220.08 119.37 222.57 121.86"/><polygon class="cls-1" points="222.57 122.15 190.17 154.83 187.16 151.86 187.09 151.92 182.5 147.38 173.9 138.91 172.87 137.88 164.28 129.41 159.68 124.87 159.8 124.75 156.59 121.56 189.01 88.86 192.21 92.02 192.35 91.87 196.95 96.43 205.5 104.84 205.52 104.82 215.15 114.32 219.75 118.85 219.5 119.1 222.57 122.15"/><path class="cls-2" d="M235.84,121.86l-46.06,46-46.05-46,46.05-46.07Zm-13.27,0-2.49-2.49-6.8,6.83L215.7,115l-.27-.27-11.35,11.35.51-11.22L194,125.51l.47-8.26-8.28.49,10.65-10.66-11.25.56L197,96.25l-.24-.25-11.29,2.42,6.85-6.85-2.71-2.71-33,33,2.66,2.66,7.08-7.09-2.53,11.64,0,.11-.05.18.14-.14,0,0,11.6-11.62L175,128.8l10.65-10.66-.47,8.33,8.33-.49-10.68,10.65,11.24-.56-11.62,11.62-.09.09-.09.07h.14l.15,0,11.64-2.53-7.07,7.1,2.48,2.48Z"/><polygon class="cls-2" points="126.53 25.8 72.98 25.8 98.52 51.34 45.47 51.34 69.2 75.04 26.25 75.04 49.64 98.46 13.02 98.46 13.24 98.66 36.43 121.85 -36.43 121.85 -13.22 98.66 -13.02 98.46 -49.66 98.46 -26.25 75.04 -69.2 75.04 -46.3 52.14 -45.49 51.34 -98.52 51.34 -72.98 25.8 -126.53 25.8 -100.74 0.01 -126.53 -25.8 -72.98 -25.8 -98.52 -51.34 -45.49 -51.34 -46.3 -52.14 -69.2 -75.04 -26.25 -75.04 -49.66 -98.43 -13.37 -98.43 -13.37 -98.59 -36.63 -121.85 36.21 -121.85 13.02 -98.66 12.81 -98.46 12.81 -98.43 49.64 -98.43 26.25 -75.04 69.2 -75.04 46.3 -52.14 45.47 -51.34 98.52 -51.34 72.98 -25.8 126.53 -25.8 100.72 0.01 126.53 25.8"/><polygon class="cls-3" points="92.1 0.01 0 92.11 -92.11 0.01 0 -92.1 92.1 0.01"/><polygon class="cls-4" points="76.75 0.01 0 76.76 -76.76 0.01 0 -76.75 76.75 0.01"/><polygon class="cls-5" points="61.4 -0.88 0 60.52 -61.41 -0.88 0 -62.28 61.4 -0.88"/><path class="cls-2" d="M32.78,0l-33,33L-2.7,30.52l7.08-7.1L-7.26,26l-.16.05h-.13l.08-.07.09-.09L4.24,14.22-7,14.78,3.68,4.13l-8.32.49.47-8.32L-14.83,7l.54-11.24L-25.89,7.33l0,0-.14.13.05-.18,0-.11,2.53-11.64-7.07,7.09L-33.21,0l33-33L2.5-30.27l-6.85,6.85L6.93-25.84l.24.24L-4.24-14.2,7-14.76-3.64-4.11,4.64-4.6,4.17,3.66,14.81-7,14.29,4.22,25.64-7.13l.27.27L23.49,4.35,30.3-2.47Z"/><polygon class="cls-3" points="32.78 0.01 -0.21 33.01 -2.7 30.52 4.38 23.43 -7.26 25.95 -7.38 25.84 4.24 14.22 -7 14.79 3.68 4.13 -4.64 4.62 -4.17 -3.71 -14.83 6.95 -14.29 -4.29 -25.89 7.33 -26 7.22 -23.47 -4.42 -30.54 2.67 -33.21 0.01 -0.21 -32.98 2.5 -30.27 -4.35 -23.43 6.93 -25.84 7.17 -25.6 -4.24 -14.2 7.02 -14.76 -3.64 -4.11 4.64 -4.6 4.17 3.66 14.81 -7 14.29 4.22 25.64 -7.13 25.91 -6.86 23.49 4.35 30.3 -2.47 32.78 0.01"/><polygon class="cls-1" points="32.78 0.31 0.38 32.98 -2.63 30.01 -2.69 30.07 -7.29 25.54 -15.88 17.07 -16.92 16.04 -25.51 7.56 -30.11 3.03 -29.99 2.9 -33.2 -0.29 -0.78 -32.99 2.42 -29.83 2.56 -29.98 7.16 -25.42 15.72 -17.01 15.74 -17.03 25.36 -7.53 29.96 -2.99 29.71 -2.75 32.78 0.31"/><path class="cls-2" d="M46.05,0,0,46.05-46,0,0-46ZM32.78,0,30.3-2.47,23.49,4.35,25.91-6.86l-.27-.27L14.29,4.22,14.81-7,4.17,3.66,4.64-4.6l-8.28.49L7-14.76l-11.26.56L7.17-25.6l-.24-.24L-4.35-23.42,2.5-30.27-.21-33l-33,33,2.67,2.66,7.07-7.09L-26,7.22l0,.11-.05.18.14-.13,0,0,11.6-11.62L-14.83,7-4.17-3.7l-.47,8.32,8.32-.49L-7,14.78l11.24-.56L-7.38,25.84l-.09.09-.08.07h.13l.16-.05L4.38,23.42l-7.08,7.1L-.21,33Z"/></pattern></defs><title>Home (pattern)</title><rect class="cls-6" width="1282.5" height="950.25"/></svg>