<svg id="Layer_1" data-name="Layer 1" xmlns="http://www.w3.org/2000/svg" viewBox="0 0 660.34 562.21"><defs><style>.cls-1{font-size:46px;}.cls-1,.cls-3,.cls-4,.cls-5,.cls-6{fill:#00233d;}.cls-1,.cls-5{font-family:SegoeUI-Semibold, Segoe UI;font-weight:600;}.cls-2{fill:#ed1c24;font-size:71px;}.cls-2,.cls-6{font-family:SegoeUI-Bold, Segoe UI;font-weight:700;}.cls-3{font-size:37px;font-family:SegoeUI, Segoe UI;}.cls-5,.cls-6{font-size:21px;}.cls-7{font-size:16px;font-family:MyriadPro-Regular, Myriad Pro;}.cls-8,.cls-9{fill:none;stroke:#000;stroke-miterlimit:10;}.cls-8{stroke-width:3.55px;}.cls-9{stroke-width:2.05px;}.cls-10{fill:#202020;}</style></defs><title>Home TEXT ( font-family-size )</title><text class="cls-1" transform="translate(10.04 48.87)">Made in </text><text class="cls-1" transform="translate(0 140.03)"> <tspan class="cls-2" x="12.65" y="0">Assiut</tspan></text><text class="cls-3" transform="translate(14.04 382.09)">Home </text><rect class="cls-4" x="13.58" y="559.21" width="95" height="3"/><text class="cls-5" transform="translate(11.34 193.17)">the frs online shop t</text><text class="cls-5" transform="translate(209.77 193.17) scale(0.98 1)">o</text><text class="cls-5" transform="translate(221.36 193.17)"><tspan xml:space="preserve"> buy Assiut hand-</tspan><tspan x="-210.02" y="28">made kilim in Egypt. We offer unique </tspan><tspan x="-210.02" y="56">collection of modern and classic kilim.</tspan></text><text class="cls-6" transform="translate(13.58 311.43)">SHOP NOW</text><text class="cls-3" transform="translate(16.87 416.17)">About </text><text class="cls-3" transform="translate(13.87 451.77)">Products </text><text class="cls-3" transform="translate(13.87 488.37)">Help </text><text class="cls-3" transform="translate(13.76 526.53)">Login </text><text class="cls-7" transform="translate(558.9 21.79)">Font: Segoe UI<tspan x="0" y="19.2">Style: semibold</tspan><tspan x="0" y="38.4">size: 46 pt</tspan></text><text class="cls-7" transform="translate(558.9 107.15)">Font: Segoe UI<tspan x="0" y="19.2">Style: bold</tspan><tspan x="0" y="38.4" xml:space="preserve">size:  71 pt</tspan></text><text class="cls-7" transform="translate(558.9 205.53)">Font: Segoe UI<tspan x="0" y="19.2">Style: semibold</tspan><tspan x="0" y="38.4" xml:space="preserve">size:  21 pt</tspan></text><text class="cls-7" transform="translate(558.9 294.73)">Font: Segoe UI<tspan x="0" y="19.2">Style: bold</tspan><tspan x="0" y="38.4" xml:space="preserve">size:  21 pt</tspan></text><text class="cls-7" transform="translate(558.9 426.55)">Font: Segoe UI<tspan x="0" y="19.2">Style: Regular</tspan><tspan x="0" y="38.4" xml:space="preserve">size:  37 pt</tspan></text><polyline class="cls-8" points="465.27 1.77 500.59 1.77 500.59 551.61 465.27 551.61"/><polyline class="cls-9" points="179.45 351.5 214.39 351.5 214.39 536.61 179.45 536.61"/><polygon class="cls-10" points="544.28 36.13 536.35 44.07 534.1 44.07 541.24 36.93 231.08 36.93 231.08 35.34 541.24 35.34 534.1 28.2 536.35 28.2 544.28 36.13"/><polygon class="cls-10" points="544.28 123.29 536.35 131.23 534.1 131.23 541.24 124.09 231.08 124.09 231.08 122.5 541.24 122.5 534.1 115.36 536.35 115.36 544.28 123.29"/><polygon class="cls-10" points="544.28 304.33 536.35 312.27 534.1 312.27 541.24 305.13 158.72 305.13 158.72 303.54 541.24 303.54 534.1 296.4 536.35 296.4 544.28 304.33"/><polygon class="cls-10" points="544.28 439.87 536.35 447.81 534.1 447.81 541.24 440.67 213.8 440.67 213.8 439.08 541.24 439.08 534.1 431.94 536.35 431.94 544.28 439.87"/><polygon class="cls-10" points="542.87 216.53 534.94 224.47 532.69 224.47 539.83 217.33 422.99 217.33 422.99 215.74 539.83 215.74 532.69 208.6 534.94 208.6 542.87 216.53"/></svg>