<svg id="Layer_1" data-name="Layer 1" xmlns="http://www.w3.org/2000/svg" viewBox="0 0 725.04 473.76"><defs><style>.cls-1,.cls-2{isolation:isolate;}.cls-2{font-size:16px;font-family:ArialMT, Arial;}.cls-3{fill:#202020;}.cls-4{font-size:40px;fill:#00233d;font-family:SegoeUI-Semibold, Segoe UI;font-weight:600;}.cls-5,.cls-6{font-size:45px;font-family:SegoeUI-Bold, Segoe UI;font-weight:700;}.cls-5{fill:#ec1c24;}.cls-6{fill:#00243d;}.cls-7{font-size:30px;font-family:SegoeUI, Segoe UI;font-weight:400;}.cls-8{fill:none;stroke:#000;stroke-miterlimit:10;stroke-width:2.05px;}</style></defs><title>Join TEXT  German</title><g class="cls-1"><text class="cls-2" transform="translate(480.13 13.73)">Font: Segoe UI</text><text class="cls-2" transform="translate(480.13 32.93)">Style: bold</text><text class="cls-2" transform="translate(480.13 52.13)"><tspan xml:space="preserve">size:  45 pt</tspan></text></g><g class="cls-1"><text class="cls-2" transform="translate(487.05 165.2)">Font: Segoe UI</text><text class="cls-2" transform="translate(487.05 184.4)">Style: semibold</text><text class="cls-2" transform="translate(487.05 203.6)"><tspan xml:space="preserve">size:  40 pt</tspan></text></g><polygon class="cls-3" points="453.78 30.3 446.46 38.59 444.4 38.59 450.97 31.13 338.42 31.13 338.42 29.46 450.97 29.46 444.4 22.02 446.46 22.02 453.78 30.3"/><polygon class="cls-3" points="466.74 176.11 456.06 184.4 453.04 184.4 462.64 176.94 298.26 176.94 298.26 175.28 462.64 175.28 453.04 167.83 456.06 167.83 466.74 176.11"/><polygon class="cls-3" points="453.78 324.59 437.81 332.88 433.31 332.88 447.65 325.42 202 325.42 202 323.76 447.65 323.76 433.31 316.31 437.81 316.31 453.78 324.59"/><g class="cls-1"><text class="cls-2" transform="translate(487.05 341.03)">Font: Segoe UI</text><text class="cls-2" transform="translate(487.05 360.23)">Style: bold</text><text class="cls-2" transform="translate(487.05 379.43)"><tspan xml:space="preserve">size:  45 pt</tspan></text></g><text class="cls-4" transform="translate(0.5 203.93)">Email</text><text class="cls-5" transform="translate(3.5 40.5)">Konto ersellen</text><text class="cls-4" transform="translate(0 244.48)">Passwort</text><text class="cls-4" transform="translate(4.3 118.95)">Vorname</text><text class="cls-4" transform="translate(0.8 159.98)">Familienname</text><text class="cls-6" transform="translate(3 334.99)">Ersellen<tspan class="cls-7"><tspan x="0" y="36"> </tspan></tspan></text><polyline class="cls-8" points="263.26 83.57 298.26 83.57 298.26 268.67 263.26 268.67"/></svg>