<svg id="Layer_1" data-name="Layer 1" xmlns="http://www.w3.org/2000/svg" viewBox="0 0 609.96 829.42"><defs><style>.cls-1,.cls-2{isolation:isolate;}.cls-2{font-size:16px;font-family:ArialMT, Arial;}.cls-3{fill:#202020;}.cls-4,.cls-7{font-size:45px;fill:#00233d;}.cls-4{font-family:SegoeUI-Semibold, Segoe UI;font-weight:600;}.cls-5{font-size:30px;font-weight:400;}.cls-5,.cls-6{font-family:SegoeUI, Segoe UI;}.cls-6{font-size:32px;fill:#ed1c24;}.cls-7{font-family:SegoeUI-Bold, Segoe UI;font-weight:700;}</style></defs><title>Login TEXT  German</title><g class="cls-1"><text class="cls-2" transform="translate(501.47 13.73)">Font: Segoe UI</text><text class="cls-2" transform="translate(501.47 32.93)">Style: semibold</text><text class="cls-2" transform="translate(501.47 52.13)"><tspan xml:space="preserve">size:  45 pt</tspan></text></g><g class="cls-1"><text class="cls-2" transform="translate(482.03 108.51)">Font: Segoe UI</text><text class="cls-2" transform="translate(482.03 127.71)">Style: semibold</text><text class="cls-2" transform="translate(482.03 146.91)"><tspan xml:space="preserve">size:  45 pt</tspan></text></g><g class="cls-1"><text class="cls-2" transform="translate(482.03 233.78)">Font: Segoe UI</text><text class="cls-2" transform="translate(482.03 252.98)">Style: regular</text><text class="cls-2" transform="translate(482.03 272.18)"><tspan xml:space="preserve">size:  32 pt</tspan></text></g><polygon class="cls-3" points="448.76 30.3 428.97 38.59 423.38 38.59 441.17 31.13 136.62 31.13 136.62 29.46 441.17 29.46 423.38 22.02 428.97 22.02 448.76 30.3"/><polygon class="cls-3" points="448.76 135.99 433.11 144.28 428.69 144.28 442.75 136.82 202 136.82 202 135.16 442.75 135.16 428.69 127.71 433.11 127.71 448.76 135.99"/><polygon class="cls-3" points="434.03 244.69 425.89 252.97 423.59 252.97 430.91 245.51 305.68 245.51 305.68 243.85 430.91 243.85 423.59 236.41 425.89 236.41 434.03 244.69"/><polygon class="cls-3" points="434.03 354.82 421.27 363.11 417.66 363.11 429.13 355.65 232.76 355.65 232.76 353.99 429.13 353.99 417.66 346.54 421.27 346.54 434.03 354.82"/><g class="cls-1"><text class="cls-2" transform="translate(482.03 341.03)">Font: Segoe UI</text><text class="cls-2" transform="translate(482.03 360.23)">Style: bold</text><text class="cls-2" transform="translate(482.03 379.43)"><tspan xml:space="preserve">size:  45 pt</tspan></text></g><text class="cls-4" transform="translate(0 48.57)">Email<tspan class="cls-5" x="110.15" y="0"> </tspan></text><text class="cls-4" transform="translate(0 145.29)">Passwort<tspan class="cls-5"><tspan x="0" y="36"> </tspan></tspan></text><text class="cls-6" transform="translate(0 253.67)">Passwort vergessen?<tspan x="0" y="38.4"> </tspan></text><text class="cls-7" transform="translate(0 365.52)">Anmelden<tspan class="cls-5"><tspan x="0" y="36"> </tspan></tspan></text></svg>