<svg id="Layer_1" data-name="Layer 1" xmlns="http://www.w3.org/2000/svg" viewBox="0 0 245.64 292.55"><defs><style>.cls-1{fill:#ec1c24;}.cls-2{fill:#00233d;}.cls-3{fill:#fbae17;}.cls-4{fill:#fcfdff;}.cls-5{fill:none;}</style></defs><title>main logo</title><path class="cls-1" d="M832.58,650.35H836v8.81c.14.91.43,1.1,1.47,1.1h4.91c1,0,1.3-.19,1.45-1.1v-.92h-3.41V655h7v3.22h-.2v.51c0,3.08-1.84,4.78-5.16,4.78h-4.25c-3.32,0-5.16-1.7-5.16-4.78Zm3.29,15.21h3.37v3.24h-3.37Zm4.79,0H844v3.24h-3.37Z" transform="translate(-832.58 -395.61)"/><path class="cls-1" d="M851.23,655V640.79h3.38V646h5.69c3.18,0,5.33,2,5.33,4.89v7.35H847.15V655Zm11,0v-3.83c0-1.32-.62-2-1.81-2h-5.81V655Z" transform="translate(-832.58 -395.61)"/><path class="cls-1" d="M868.19,663.53v-3.27h4.65c.65,0,1.07-.13,1.24-.43a1.13,1.13,0,0,0,.2-.67v-.92h-.76c-3.15,0-5.33-2-5.33-4.92v-2.43c0-2.89,2.18-4.89,5.33-4.89h4.16v9h.18v3.22h-.18v.51c0,3.08-1.84,4.78-5.15,4.78Zm6.09-14.31h-.88c-1.21,0-1.84.65-1.84,2V653c0,1.32.63,2,1.84,2h.88Z" transform="translate(-832.58 -395.61)"/><path class="cls-1" d="M877.69,655h7.11v-9h3.38v9h.17v3.22H877.69Zm2.32,5.24h3.37v3.27H880Zm4.79,0h3.38v3.27H884.8Z" transform="translate(-832.58 -395.61)"/><polygon class="cls-1" points="64.42 259.42 64.42 254.75 67.79 254.75 67.79 259.42 71.64 259.42 71.64 252.59 75.02 252.59 75.02 259.42 78.79 259.42 78.79 250.4 82.16 250.4 82.16 262.63 55.32 262.63 55.32 259.42 64.42 259.42"/><path class="cls-1" d="M931.67,658.24H917.32V655h4.17V646.6h3.37V655h3.38V640.79h3.43Zm-6.84-17.45V642H923.7c-.54,0-.82.32-.82.89s.31.75.91.75h1.61v1.25H921v-1.25h.77a1.63,1.63,0,0,1-.2-.73,2.14,2.14,0,0,1,2.29-2.13Z" transform="translate(-832.58 -395.61)"/><rect class="cls-1" x="101.64" y="245.18" width="3.37" height="17.45"/><path class="cls-1" d="M951.06,658.24v-7.35c0-2.89,2.18-4.89,5.33-4.89h3.74v3.22h-3.85c-1.25,0-1.84.65-1.84,2V655h5.61v3.73c0,3.08-1.84,4.78-5.16,4.78h-4.25c-3.32,0-5.16-1.7-5.16-4.78v-8.4h3.37v8.81c.14.91.43,1.1,1.48,1.1h4.9c1,0,1.45-.37,1.45-1.1v-.92Zm-2.29,7.32h3.37v3.24h-3.37Zm4.79,0h3.37v3.24h-3.37Z" transform="translate(-832.58 -395.61)"/><path class="cls-1" d="M962.69,663.53v-3.27h4.65c.65,0,1.07-.13,1.24-.43a1.13,1.13,0,0,0,.2-.67v-.92H968c-3.15,0-5.33-2-5.33-4.92v-2.43c0-2.89,2.18-4.89,5.33-4.89h4.16v12.75c0,3.08-1.84,4.78-5.16,4.78Zm6.09-14.31h-.88c-1.22,0-1.84.65-1.84,2V653c0,1.32.62,2,1.84,2h.88Z" transform="translate(-832.58 -395.61)"/><path class="cls-1" d="M982.19,655v-1.94a3.44,3.44,0,0,0-1.05-2.84,4.1,4.1,0,0,0-1.47-.78,10.64,10.64,0,0,0-2.58-.27V646h1.11a8.07,8.07,0,0,1,4.62,1.29,6.43,6.43,0,0,1,2.77,5.78v2h.17v3.22h-11V655Z" transform="translate(-832.58 -395.61)"/><path class="cls-1" d="M985.6,655h7.11v-9h3.38v9h.17v3.22H985.6Zm2.32,5.24h3.37v3.27h-3.37Zm4.79,0h3.37v3.27h-3.37Z" transform="translate(-832.58 -395.61)"/><polygon class="cls-1" points="163.51 259.42 167.68 259.42 167.68 245.18 171.05 245.18 171.05 262.63 163.51 262.63 163.51 259.42"/><rect class="cls-1" x="173.6" y="245.18" width="3.37" height="17.45"/><path class="cls-1" d="M1028.52,655h.14v3.22h-.76a5.22,5.22,0,0,1-4.77,2.54h-.7v2a6.48,6.48,0,0,1-1.11,4.11,4.46,4.46,0,0,1-1.64,1.32,5.75,5.75,0,0,1-2.58.57v-3.24c1.56-.25,1.95-.7,1.95-2.35V650.89c0-2.89,2.16-4.89,5.33-4.89h4.14Zm-6.09,2.52h.87c1.25,0,1.85-.65,1.85-2v-6.34h-.88c-1.25,0-1.84.65-1.84,2Z" transform="translate(-832.58 -395.61)"/><path class="cls-1" d="M1028.52,655h7.12v-9H1039v9h.17v3.22h-10.66Zm2.33,5.24h3.37v3.27h-3.37Zm4.79,0H1039v3.27h-3.37Z" transform="translate(-832.58 -395.61)"/><polygon class="cls-1" points="206.43 259.42 210.6 259.42 210.6 245.18 213.97 245.18 213.97 259.42 214.14 259.42 214.14 262.63 206.43 262.63 206.43 259.42"/><path class="cls-1" d="M1050.64,651.7v-5.56l7.37-5.27h5.58l-9.53,6.84v.75h5.36c3.12,0,5.33,2,5.33,4.89V655h.17v3.22h-18.37V655h14.8v-1.35c0-1.32-.62-2-1.87-2Z" transform="translate(-832.58 -395.61)"/><polygon class="cls-1" points="232.18 259.42 236.35 259.42 236.35 245.18 239.72 245.18 239.72 262.63 232.18 262.63 232.18 259.42"/><rect class="cls-1" x="242.27" y="245.18" width="3.37" height="17.45"/><polygon class="cls-2" points="12.37 292.55 7.31 284.13 2.17 292.55 0.1 292.55 6.63 282.09 7.98 282.09 14.47 292.55 12.37 292.55"/><path class="cls-2" d="M847.47,688.15v-1.54H856c.83,0,1.22-.34,1.22-1v-1.32c0-.62-.39-1-1.22-1h-5.78c-2.23,0-3.08-1-3.08-2.53v-.61c0-1.5.85-2.52,3.08-2.52h8.31v1.54h-8.31c-.84,0-1.23.34-1.23,1v.64c0,.62.39,1,1.23,1H856c2.23,0,3.08,1,3.08,2.53v1.29c0,1.5-.85,2.52-3.08,2.52Z" transform="translate(-832.58 -395.61)"/><path class="cls-2" d="M860.73,688.15v-1.54h8.53c.84,0,1.23-.34,1.23-1v-1.32c0-.62-.39-1-1.23-1h-5.77c-2.23,0-3.08-1-3.08-2.53v-.61c0-1.5.85-2.52,3.08-2.52h8.31v1.54h-8.31c-.84,0-1.23.34-1.23,1v.64c0,.62.39,1,1.23,1h5.77c2.24,0,3.09,1,3.09,2.53v1.29c0,1.5-.85,2.52-3.09,2.52Z" transform="translate(-832.58 -395.61)"/><rect class="cls-2" x="41.35" y="282.09" width="1.86" height="10.46"/><path class="cls-2" d="M880.71,688.15c-2.24,0-3.09-1-3.09-2.52V677.7h1.86v7.94c0,.63.39,1,1.23,1h6.09c.84,0,1.23-.34,1.23-1V677.7h1.85v7.93c0,1.5-.46,2.52-2.69,2.52Z" transform="translate(-832.58 -395.61)"/><polygon class="cls-2" points="63.63 292.55 63.63 283.64 58.48 283.64 58.48 282.09 70.49 282.09 70.49 283.64 65.49 283.64 65.49 292.55 63.63 292.55"/><polygon class="cls-2" points="88.59 292.55 88.59 287.79 80.55 287.79 80.55 292.55 78.7 292.55 78.7 282.09 80.55 282.09 80.55 286.25 88.59 286.25 88.59 282.09 90.44 282.09 90.44 292.55 88.59 292.55"/><polygon class="cls-2" points="103.62 292.55 98.55 284.13 93.41 292.55 91.34 292.55 97.87 282.09 99.22 282.09 105.71 292.55 103.62 292.55"/><polygon class="cls-2" points="118.7 292.55 108.22 284.41 108.22 292.55 106.61 292.55 106.61 282.09 108.21 282.09 117.99 289.86 117.99 282.09 119.61 282.09 119.61 292.55 118.7 292.55"/><path class="cls-2" d="M954,688.15V677.7h9c2.77,0,3.62,1,3.62,3.09v4.38c0,2-.85,3-3.62,3Zm10.77-7.36c0-1.21-.39-1.55-1.77-1.55h-7.15v7.37H963c1.38,0,1.77-.34,1.77-1.46Z" transform="translate(-832.58 -395.61)"/><polygon class="cls-2" points="149.01 292.55 149.01 285.23 144.01 292.55 142.49 292.55 137.49 285.24 137.49 292.55 135.77 292.55 135.77 282.09 137.5 282.09 143.33 290.63 149.13 282.09 150.72 282.09 150.72 292.55 149.01 292.55"/><polygon class="cls-2" points="163.9 292.55 158.83 284.13 153.69 292.55 151.62 292.55 158.15 282.09 159.5 282.09 165.99 292.55 163.9 292.55"/><path class="cls-2" d="M999.46,688.15V677.7h9c2.78,0,3.63,1,3.63,3.09v4.38c0,2-.85,3-3.63,3Zm10.77-7.36c0-1.21-.39-1.55-1.77-1.55h-7.14v7.37h7.14c1.38,0,1.77-.34,1.77-1.46Z" transform="translate(-832.58 -395.61)"/><polygon class="cls-2" points="181.25 292.55 181.25 282.09 191.34 282.09 191.34 283.64 183.1 283.64 183.1 286.25 190.93 286.25 190.93 287.79 183.1 287.79 183.1 291 191.34 291 191.34 292.55 181.25 292.55"/><polygon class="cls-2" points="208.64 292.55 204.93 287.88 201.74 287.88 201.74 292.55 199.88 292.55 199.88 282.09 201.74 282.09 201.74 286.34 204.89 286.34 208.59 282.09 210.79 282.09 206.43 286.96 210.78 292.55 208.64 292.55"/><rect class="cls-2" x="211.93" y="282.09" width="1.86" height="10.46"/><polygon class="cls-2" points="215.67 292.55 215.67 282.09 217.53 282.09 217.53 291 225.5 291 225.5 292.55 215.67 292.55"/><rect class="cls-2" x="226.86" y="282.09" width="1.86" height="10.46"/><polygon class="cls-2" points="243.83 292.55 243.83 285.23 238.84 292.55 237.32 292.55 232.31 285.24 232.31 292.55 230.6 292.55 230.6 282.09 232.32 282.09 238.15 290.63 243.96 282.09 245.54 282.09 245.54 292.55 243.83 292.55"/><rect class="cls-2" x="3.33" y="288.13" width="7.67" height="1.68"/><rect class="cls-2" x="94.83" y="288.13" width="7.67" height="1.68"/><rect class="cls-2" x="154.97" y="288.13" width="7.67" height="1.68"/><polygon class="cls-2" points="245.28 142.9 193.46 142.9 218.18 167.62 166.84 167.62 189.8 190.56 148.23 190.56 170.87 213.22 135.42 213.22 135.64 213.42 158.08 235.86 87.57 235.86 110.03 213.42 110.23 213.22 74.76 213.22 97.42 190.56 55.85 190.56 78.01 168.4 78.79 167.62 27.47 167.62 52.19 142.9 0.37 142.9 25.32 117.94 0.37 92.96 52.19 92.96 27.47 68.24 78.79 68.24 78.01 67.46 55.85 45.3 97.42 45.3 74.76 22.66 109.88 22.66 109.88 22.51 87.37 0 157.87 0 135.42 22.44 135.23 22.64 135.23 22.66 170.87 22.66 148.23 45.3 189.8 45.3 167.64 67.46 166.84 68.24 218.18 68.24 193.46 92.96 245.28 92.96 220.3 117.94 245.28 142.9"/><rect class="cls-3" x="892.37" y="450.51" width="126.07" height="126.07" transform="translate(-915.88 430.38) rotate(-45)"/><rect class="cls-4" x="902.87" y="461.01" width="105.06" height="105.06" transform="translate(-915.88 430.38) rotate(-45)"/><rect class="cls-1" x="913.38" y="470.66" width="84.05" height="84.05" transform="translate(-915.27 430.13) rotate(-45)"/><path class="cls-2" d="M984.73,511.14l-6.59,6.61,2.34-10.85-.26-.26-11,11,.49-10.85-10.29,10.31.46-8-8,.48,10.31-10.31-10.89.54,11.05-11-.24-.24-10.92,2.34,6.63-6.62-2.62-2.63-31.94,31.94,2.58,2.58,6.85-6.87-2.45,11.26,0,.11-.05.17.13-.13.05,0,11.22-11.24-.52,10.87L951.36,510l-.45,8.06,8.06-.48-10.34,10.32,10.88-.55-11.25,11.25-.08.08-.09.07h.13l.15,0,11.27-2.45-6.85,6.87,2.41,2.4,31.93-31.93Z" transform="translate(-832.58 -395.61)"/><polygon class="cls-3" points="154.55 117.94 122.62 149.88 120.21 147.47 127.06 140.6 115.8 143.05 115.69 142.94 126.93 131.7 116.06 132.24 126.39 121.93 118.33 122.4 118.78 114.34 108.47 124.66 108.99 113.78 97.77 125.03 97.66 124.92 100.11 113.65 93.26 120.52 90.69 117.94 122.62 86.01 125.24 88.63 118.61 95.26 129.53 92.92 129.77 93.16 118.72 104.19 129.62 103.64 119.3 113.95 127.32 113.48 126.86 121.47 137.16 111.16 136.66 122.02 147.64 111.03 147.9 111.29 145.56 122.14 152.15 115.54 154.55 117.94"/><polygon class="cls-5" points="154.56 118.23 123.19 149.85 120.28 146.98 120.22 147.04 115.77 142.65 107.45 134.45 106.45 133.45 98.13 125.25 93.68 120.86 93.8 120.74 90.69 117.65 122.08 86 125.17 89.06 125.31 88.92 129.76 93.33 138.04 101.47 138.06 101.45 147.37 110.64 151.82 115.03 151.58 115.27 154.56 118.23"/><path class="cls-2" d="M955.39,469l-44.56,44.59,44.56,44.56L1000,513.55Zm-.19,76.52-2.41-2.4,6.85-6.87-11.27,2.45-.15,0h-.13l.09-.07.08-.08,11.25-11.25-10.88.55L959,517.53l-8.06.48.45-8.06-10.31,10.31.52-10.87-11.22,11.24-.05,0-.13.13.05-.17,0-.11,2.45-11.26-6.85,6.87-2.58-2.58,31.94-31.94,2.62,2.63-6.63,6.62,10.92-2.34.24.24-11.05,11,10.89-.54-10.31,10.31,8-.48-.46,8,10.29-10.31-.49,10.85,11-11,.26.26-2.34,10.85,6.59-6.61,2.4,2.41Z" transform="translate(-832.58 -395.61)"/></svg>