<svg id="Layer_1" data-name="Layer 1" xmlns="http://www.w3.org/2000/svg" viewBox="0 0 676.3 522.33"><defs><style>.cls-1,.cls-10,.cls-13,.cls-15,.cls-6,.cls-8,.cls-9{isolation:isolate;}.cls-1{font-size:16px;font-family:ArialMT, Arial;}.cls-12,.cls-2,.cls-4,.cls-5{fill:none;}.cls-2,.cls-4,.cls-5{stroke:#000;stroke-miterlimit:10;}.cls-2{stroke-width:1.84px;}.cls-3{fill:#202020;}.cls-4{stroke-width:1.74px;}.cls-5{stroke-width:1.91px;}.cls-6,.cls-7{font-size:19.61px;}.cls-10,.cls-13,.cls-14,.cls-6,.cls-7,.cls-8,.cls-9{fill:#00233d;}.cls-13,.cls-15,.cls-6,.cls-7,.cls-8{font-family:SegoeUI-Semibold, Segoe UI;font-weight:600;}.cls-8{font-size:19px;}.cls-9{font-size:18px;font-family:SegoeUI, Segoe UI;}.cls-10{font-size:28px;font-family:SegoeUI-Bold, Segoe UI;font-weight:700;}.cls-11,.cls-15{fill:#ffd300;}.cls-13,.cls-15{font-size:17px;}</style></defs><title>product page TEXT  German</title><text class="cls-1" transform="translate(465.81 47.12)">Font: Segoe UI</text><text class="cls-1" transform="translate(465.81 66.32)">Style: semibold</text><text class="cls-1" transform="translate(465.81 85.52)"><tspan xml:space="preserve">size:  18 pt</tspan></text><text class="cls-1" transform="translate(327.57 163.47)">Font: Segoe UI</text><text class="cls-1" transform="translate(327.57 182.67)">Style: regular</text><text class="cls-1" transform="translate(327.57 201.87)"><tspan xml:space="preserve">size:  18 pt</tspan></text><polyline class="cls-2" points="298.2 0.92 333.5 0.92 333.5 109.82 298.2 109.82"/><polygon class="cls-3" points="453.4 55.32 445.79 63.62 443.59 63.62 450.46 56.22 333.5 56.22 333.5 54.52 450.46 54.52 443.59 47.12 445.79 47.12 453.4 55.32"/><polyline class="cls-4" points="141.1 119.67 176.4 119.67 176.4 216.57 141.1 216.57"/><polygon class="cls-3" points="306.7 171.47 298.4 179.67 296.1 179.67 303.5 172.27 176 172.27 176 170.57 303.5 170.57 296.1 163.17 298.4 163.17 306.7 171.47"/><text class="cls-1" transform="translate(460.21 290.2)">Font: Segoe UI</text><text class="cls-1" transform="translate(460.21 309.4)">Style: bold</text><text class="cls-1" transform="translate(460.21 328.6)"><tspan xml:space="preserve">size:  28 pt</tspan></text><polyline class="cls-5" points="273.7 239.57 309 239.57 309 356.97 273.7 356.97"/><polygon class="cls-3" points="439.4 298.17 431.1 306.47 428.7 306.47 436.2 298.97 308.6 298.97 308.6 297.37 436.2 297.37 428.7 289.87 431.1 289.87 439.4 298.17"/><text class="cls-1" transform="translate(277.11 390.87)">Font: Segoe UI</text><text class="cls-1" transform="translate(277.11 410.07)">Style: semibold</text><text class="cls-1" transform="translate(277.11 429.27)"><tspan xml:space="preserve">size:  17 pt</tspan></text><polygon class="cls-3" points="256.3 398.87 249.33 407.07 247.31 407.07 253.61 399.67 146.5 399.67 146.5 397.97 253.61 397.97 247.31 390.57 249.33 390.57 256.3 398.87"/><text class="cls-1" transform="translate(277.11 478.74)">Font: Segoe UI</text><text class="cls-1" transform="translate(277.11 497.94)">Style: semibold</text><text class="cls-1" transform="translate(277.11 517.14)"><tspan xml:space="preserve">size:  17 pt</tspan></text><polygon class="cls-3" points="256.3 486.67 250.11 494.97 248.32 494.97 253.91 487.47 158.75 487.47 158.75 485.87 253.91 485.87 248.32 478.37 250.11 478.37 256.3 486.67"/><text class="cls-6" transform="translate(5.54 21.75) scale(0.88 1)">Heritage Wolle Handgefertigter Kelim </text><text class="cls-6" transform="translate(6.54 72.27) scale(0.89 1)">Hersyen </text><text class="cls-7" transform="translate(75.95 72.27) scale(0.88 1)">Wolle Handgefertigter Kelim </text><text class="cls-6" transform="translate(5.54 96.19) scale(0.89 1)">Qashqai </text><text class="cls-7" transform="translate(74.58 96.19) scale(0.88 1)">Wolle Handgefertigter Kelim </text><text class="cls-6" transform="translate(5.54 47.11) scale(0.9 1)">Balochy </text><text class="cls-7" transform="translate(73.11 47.11) scale(0.88 1)">Wolle Handgefertigter Kelim </text><text class="cls-8" transform="translate(257.53 47.11) scale(0.96 1)"> </text><text class="cls-9" transform="translate(7.24 144.27)">Größe: 70x145 cm</text><text class="cls-9" transform="translate(6.24 185.33)"><tspan xml:space="preserve">            70x145 cm</tspan></text><text class="cls-9" transform="translate(5.84 204.53)"><tspan xml:space="preserve">            70x135 cm</tspan></text><text class="cls-9" transform="translate(6.24 163.99)"><tspan xml:space="preserve">            70x120 cm</tspan></text><text class="cls-10" transform="translate(8.69 265.34) scale(1.01 1)">Preis: 880.00 EGP</text><text class="cls-10" transform="translate(8.69 321.24) scale(1.01 1)"><tspan xml:space="preserve">          795.00 EGP</tspan></text><text class="cls-10" transform="translate(8.69 348.3) scale(1.01 1)"><tspan xml:space="preserve">          635.00 EGP</tspan></text><text class="cls-10" transform="translate(8.69 293.84) scale(1.01 1)"><tspan xml:space="preserve">          570.00 EGP</tspan></text><rect class="cls-11" x="427.2" y="380.07" width="249.1" height="59.9"/><rect class="cls-12" x="5" y="389.47" width="103.8" height="18.4"/><text class="cls-13" transform="translate(0 405.01)">Warenkorb legen</text><rect class="cls-14" x="427.2" y="456.77" width="249.1" height="59.9"/><rect class="cls-12" x="5" y="476.37" width="92.1" height="18.4"/><text class="cls-15" transform="translate(0 492.62)">Warenkorb ansehen</text></svg>