<?xml version="1.0" encoding="utf-8"?>
<!-- Generator: Adobe Illustrator 24.0.1, SVG Export Plug-In . SVG Version: 6.00 Build 0)  -->
<svg version="1.1" id="Layer_1" xmlns="http://www.w3.org/2000/svg" xmlns:xlink="http://www.w3.org/1999/xlink" x="0px" y="0px"
	 viewBox="0 0 747.2 569.4" style="enable-background:new 0 0 747.2 569.4;" xml:space="preserve">
<style type="text/css">
	.st0{font-family:'ArialMT';}
	.st1{font-size:16px;}
	.st2{fill:none;stroke:#000000;stroke-width:1.8401;stroke-miterlimit:10;}
	.st3{fill:#202020;}
	.st4{fill:none;stroke:#000000;stroke-width:1.735;stroke-miterlimit:10;}
	.st5{fill:none;stroke:#000000;stroke-width:1.91;stroke-miterlimit:10;}
	.st6{fill:#00233D;}
	.st7{font-family:'SegoeUI-Semibold';}
	.st8{font-size:18.5px;}
	.st9{font-size:19px;}
	.st10{font-family:'SegoeUI';}
	.st11{font-size:18px;}
	.st12{font-family:'SegoeUI-Bold';}
	.st13{font-size:28px;}
	.st14{fill:#FFD300;}
	.st15{fill:none;}
	.st16{font-size:21px;}
	.st17{font-size:22px;}
</style>
<title>Help TEXT ( font-family-size )</title>
<text transform="matrix(1 0 0 1 485.31 51.9401)" class="st0 st1">Font: Segoe UI</text>
<text transform="matrix(1 0 0 1 485.31 71.14)" class="st0 st1">Style: semibold</text>
<text transform="matrix(1 0 0 1 485.31 90.3401)" class="st0 st1">size:  18.5 pt</text>
<text transform="matrix(1 0 0 1 347.07 182.7002)" class="st0 st1">Font: Segoe UI</text>
<text transform="matrix(1 0 0 1 347.07 201.9001)" class="st0 st1">Style: regular</text>
<text transform="matrix(1 0 0 1 347.07 221.1002)" class="st0 st1">size:  18 pt</text>
<polyline class="st2" points="295.2,16.7 330.5,16.7 330.5,125.6 295.2,125.6 "/>
<polygon class="st3" points="460.9,66.3 452.6,74.6 450.2,74.6 457.7,67.2 330.1,67.2 330.1,65.5 457.7,65.5 450.2,58.1 452.6,58.1 
	"/>
<polyline class="st4" points="160.6,138.9 195.9,138.9 195.9,235.8 160.6,235.8 "/>
<polygon class="st3" points="326.2,190.7 317.9,198.9 315.6,198.9 323,191.5 195.5,191.5 195.5,189.8 323,189.8 315.6,182.4 
	317.9,182.4 "/>
<text transform="matrix(1 0 0 1 479.71 309.4307)" class="st0 st1">Font: Segoe UI</text>
<text transform="matrix(1 0 0 1 479.71 328.6307)" class="st0 st1">Style: bold</text>
<text transform="matrix(1 0 0 1 479.71 347.8308)" class="st0 st1">size:  28 pt</text>
<polyline class="st5" points="293.2,258.8 328.5,258.8 328.5,376.2 293.2,376.2 "/>
<polygon class="st3" points="458.9,317.4 450.6,325.7 448.2,325.7 455.7,318.2 328.1,318.2 328.1,316.6 455.7,316.6 448.2,309.1 
	450.6,309.1 "/>
<text transform="matrix(1 0 0 1 296.6135 410.1024)" class="st0 st1">Font: Segoe UI</text>
<text transform="matrix(1 0 0 1 296.6135 429.3024)" class="st0 st1">Style: regular</text>
<text transform="matrix(1 0 0 1 296.6135 448.5025)" class="st0 st1">size:  21 pt</text>
<polygon class="st3" points="275.8,418.1 267.5,426.3 265.1,426.3 272.6,418.9 145,418.9 145,417.2 272.6,417.2 265.1,409.8 
	267.5,409.8 "/>
<text transform="matrix(1 0 0 1 296.6135 497.965)" class="st0 st1">Font: Segoe UI</text>
<text transform="matrix(1 0 0 1 296.6135 517.165)" class="st0 st1">Style: semibold</text>
<text transform="matrix(1 0 0 1 296.6135 536.3651)" class="st0 st1">size:  22 pt</text>
<polygon class="st3" points="275.8,505.9 267.5,514.2 265.1,514.2 272.6,506.7 145,506.7 145,505.1 272.6,505.1 265.1,497.6 
	267.5,497.6 "/>
<g>
	<text transform="matrix(0.9308 0 0 1.06 25.04 40.9803)" class="st6 st7 st8">Heritage Wool Handmade Kilim </text>
</g>
<g>
	<text transform="matrix(0.9463 0 0 1.06 26.04 91.5002)" class="st6 st7 st8">Hersyen Wool Handmade Kilim </text>
</g>
<g>
	<text transform="matrix(0.9445 0 0 1.06 25.04 115.42)" class="st6 st7 st8">Qashqai Wool Handmade Kilim </text>
</g>
<g>
	<text transform="matrix(0.9562 0 0 1.06 25.04 66.3405)" class="st6 st7 st8">Balochy Wool Handmade Kilim</text>
	<text transform="matrix(0.9562 0 0 1 277.0352 66.3405)" class="st6 st7 st9"> </text>
</g>
<text transform="matrix(1 0 0 1 26.7402 163.5)" class="st6 st10 st11">Size: 70x145 cm</text>
<text transform="matrix(1 0 0 1 25.7397 204.5592)" class="st6 st10 st11">Size: 70x145 cm</text>
<text transform="matrix(1 0 0 1 25.3398 223.7596)" class="st6 st10 st11">Size: 70x135 cm</text>
<text transform="matrix(1 0 0 1 25.7402 183.2201)" class="st6 st10 st11">Size: 70x120 cm</text>
<text transform="matrix(1.01 0 0 1 28.1978 284.5724)" class="st6 st12 st13">Price: 880.00 EGP</text>
<text transform="matrix(1.01 0 0 1 28.1973 340.4706)" class="st6 st12 st13">Price: 795.00 EGP</text>
<text transform="matrix(1.01 0 0 1 28.1982 367.5321)" class="st6 st12 st13">Price: 635.00 EGP</text>
<text transform="matrix(1.01 0 0 1 28.1973 313.0707)" class="st6 st12 st13">Price: 570.00 EGP</text>
<rect x="446.7" y="399.3" class="st14" width="249.1" height="59.9"/>
<rect x="24.5" y="408.7" class="st15" width="103.8" height="18.4"/>
<text transform="matrix(1 0 0 1 24.5045 424.244)" class="st6 st10 st16">Add to cart</text>
<rect x="446.7" y="476" class="st6" width="249.1" height="59.9"/>
<rect x="24.5" y="495.6" class="st15" width="92.1" height="18.4"/>
<text transform="matrix(1 0 0 1 24.5069 511.847)" class="st14 st7 st17">View cart</text>
</svg>
