<svg id="Layer_1" data-name="Layer 1" xmlns="http://www.w3.org/2000/svg" viewBox="0 0 93.22 111.02"><defs><style>.cls-1{fill:#ec1c24;}.cls-2{fill:#00233d;}.cls-3{fill:#fbae17;}.cls-4{fill:#fcfdff;}.cls-5{fill:none;}</style></defs><title>small size logo</title><path class="cls-1" d="M908.79,583h1.28v3.34c.06.35.16.42.56.42h1.86c.39,0,.5-.07.55-.42V586h-1.29v-1.22h2.65V586h-.08v.19c0,1.17-.7,1.81-2,1.81h-1.61c-1.26,0-2-.64-2-1.81Zm1.25,5.77h1.28V590H910Zm1.82,0h1.28V590h-1.28Z" transform="translate(-908.79 -486.37)"/><path class="cls-1" d="M915.87,584.82v-5.41h1.28v2h2.16a1.86,1.86,0,0,1,2,1.86V586h-7v-1.22Zm4.17,0v-1.46c0-.5-.23-.75-.68-.75h-2.21v2.21Z" transform="translate(-908.79 -486.37)"/><path class="cls-1" d="M922.3,588V586.8h1.77c.25,0,.41,0,.47-.16a.4.4,0,0,0,.08-.26V586h-.29a1.86,1.86,0,0,1-2-1.87v-.92a1.86,1.86,0,0,1,2-1.86h1.58v3.43H926V586h-.06v.19c0,1.17-.7,1.81-2,1.81Zm2.32-5.43h-.34q-.69,0-.69.75v.7c0,.5.23.76.69.76h.34Z" transform="translate(-908.79 -486.37)"/><path class="cls-1" d="M925.91,584.82h2.7v-3.43h1.28v3.43H930V586h-4Zm.88,2h1.28V588h-1.28Zm1.82,0h1.28V588h-1.28Z" transform="translate(-908.79 -486.37)"/><polygon class="cls-1" points="24.45 98.44 24.45 96.67 25.73 96.67 25.73 98.44 27.19 98.44 27.19 95.85 28.47 95.85 28.47 98.44 29.9 98.44 29.9 95.02 31.18 95.02 31.18 99.66 20.99 99.66 20.99 98.44 24.45 98.44"/><path class="cls-1" d="M946.39,586H941v-1.22h1.58v-3.2h1.28v3.2h1.28v-5.41h1.3Zm-2.59-6.63v.47h-.43a.29.29,0,0,0-.31.33c0,.2.12.29.34.29H944V581h-1.68v-.47h.29a.69.69,0,0,1-.08-.28.82.82,0,0,1,.87-.81Z" transform="translate(-908.79 -486.37)"/><rect class="cls-1" x="38.57" y="93.04" width="1.28" height="6.62"/><path class="cls-1" d="M953.75,586v-2.79a1.86,1.86,0,0,1,2-1.86h1.42v1.22h-1.47c-.47,0-.7.25-.7.75v1.46h2.13v1.41a1.7,1.7,0,0,1-1.95,1.81h-1.62c-1.26,0-2-.64-2-1.81V583h1.28v3.34c.06.35.17.42.56.42h1.87q.54,0,.54-.42V586Zm-.87,2.77h1.28V590h-1.28Zm1.82,0H956V590H954.7Z" transform="translate(-908.79 -486.37)"/><path class="cls-1" d="M958.17,588V586.8h1.76c.25,0,.41,0,.47-.16a.4.4,0,0,0,.08-.26V586h-.29a1.85,1.85,0,0,1-2-1.87v-.92a1.85,1.85,0,0,1,2-1.86h1.58v4.84c0,1.17-.7,1.81-2,1.81Zm2.31-5.43h-.34q-.69,0-.69.75v.7c0,.5.23.76.69.76h.34Z" transform="translate(-908.79 -486.37)"/><path class="cls-1" d="M965.57,584.82v-.74a1.31,1.31,0,0,0-.4-1.08,1.79,1.79,0,0,0-.56-.3,4,4,0,0,0-1-.1v-1.22h.42a3.08,3.08,0,0,1,1.75.49,2.45,2.45,0,0,1,1.06,2.2v.75h.06V586h-4.18v-1.22Z" transform="translate(-908.79 -486.37)"/><path class="cls-1" d="M966.86,584.82h2.7v-3.43h1.28v3.43h.06V586h-4Zm.88,2H969V588h-1.28Zm1.82,0h1.28V588h-1.28Z" transform="translate(-908.79 -486.37)"/><polygon class="cls-1" points="62.05 98.44 63.63 98.44 63.63 93.04 64.91 93.04 64.91 99.66 62.05 99.66 62.05 98.44"/><rect class="cls-1" x="65.88" y="93.04" width="1.28" height="6.62"/><path class="cls-1" d="M983.15,584.82h.05V586h-.29a2,2,0,0,1-1.81,1h-.27v.77a2.55,2.55,0,0,1-.41,1.56,1.79,1.79,0,0,1-.63.5,2.22,2.22,0,0,1-1,.21v-1.23c.59-.09.74-.26.74-.89v-4.67a1.86,1.86,0,0,1,2-1.86h1.57Zm-2.32.95h.34c.47,0,.7-.25.7-.75v-2.41h-.34c-.47,0-.7.25-.7.75Z" transform="translate(-908.79 -486.37)"/><path class="cls-1" d="M983.15,584.82h2.7v-3.43h1.28v3.43h.06V586h-4Zm.88,2h1.28V588H984Zm1.82,0h1.28V588h-1.28Z" transform="translate(-908.79 -486.37)"/><polygon class="cls-1" points="78.34 98.44 79.92 98.44 79.92 93.04 81.2 93.04 81.2 98.44 81.26 98.44 81.26 99.66 78.34 99.66 78.34 98.44"/><path class="cls-1" d="M991.54,583.56v-2.12l2.8-2h2.12L992.84,582v.29h2a1.86,1.86,0,0,1,2,1.85v.64H997V586h-7v-1.22h5.62v-.52c0-.5-.24-.74-.71-.74Z" transform="translate(-908.79 -486.37)"/><polygon class="cls-1" points="88.11 98.44 89.69 98.44 89.69 93.04 90.97 93.04 90.97 99.66 88.11 99.66 88.11 98.44"/><rect class="cls-1" x="91.94" y="93.04" width="1.28" height="6.62"/><polygon class="cls-2" points="4.7 111.02 2.77 107.82 0.82 111.02 0.04 111.02 2.52 107.05 3.03 107.05 5.49 111.02 4.7 111.02"/><path class="cls-2" d="M914.44,597.39v-.59h3.24c.32,0,.47-.13.47-.36v-.51c0-.23-.15-.36-.47-.36h-2.19c-.85,0-1.17-.39-1.17-1v-.23c0-.57.32-1,1.17-1h3.16V594h-3.16c-.32,0-.47.13-.47.36v.24c0,.24.15.37.47.37h2.19c.85,0,1.17.39,1.17,1v.49c0,.57-.32,1-1.17,1Z" transform="translate(-908.79 -486.37)"/><path class="cls-2" d="M919.47,597.39v-.59h3.24c.32,0,.47-.13.47-.36v-.51c0-.23-.15-.36-.47-.36h-2.19c-.85,0-1.17-.39-1.17-1v-.23c0-.57.32-1,1.17-1h3.16V594h-3.16c-.32,0-.46.13-.46.36v.24c0,.24.14.37.46.37h2.19c.85,0,1.17.39,1.17,1v.49c0,.57-.32,1-1.17,1Z" transform="translate(-908.79 -486.37)"/><rect class="cls-2" x="15.69" y="107.05" width="0.7" height="3.97"/><path class="cls-2" d="M927.06,597.39c-.85,0-1.17-.39-1.17-1v-3h.7v3c0,.23.15.36.47.36h2.31c.32,0,.46-.13.46-.36v-3h.71v3c0,.57-.18,1-1,1Z" transform="translate(-908.79 -486.37)"/><polygon class="cls-2" points="24.15 111.02 24.15 107.63 22.19 107.63 22.19 107.05 26.75 107.05 26.75 107.63 24.85 107.63 24.85 111.02 24.15 111.02"/><polygon class="cls-2" points="33.62 111.02 33.62 109.21 30.57 109.21 30.57 111.02 29.86 111.02 29.86 107.05 30.57 107.05 30.57 108.63 33.62 108.63 33.62 107.05 34.32 107.05 34.32 111.02 33.62 111.02"/><polygon class="cls-2" points="39.32 111.02 37.4 107.82 35.45 111.02 34.66 111.02 37.14 107.05 37.65 107.05 40.11 111.02 39.32 111.02"/><polygon class="cls-2" points="45.04 111.02 41.07 107.93 41.07 111.02 40.45 111.02 40.45 107.05 41.06 107.05 44.77 110 44.77 107.05 45.39 107.05 45.39 111.02 45.04 111.02"/><path class="cls-2" d="M954.87,597.39v-4h3.41c1.05,0,1.38.39,1.38,1.17v1.67c0,.74-.33,1.13-1.38,1.13Zm4.08-2.8c0-.45-.15-.58-.67-.58h-2.71v2.79h2.71c.52,0,.67-.13.67-.55Z" transform="translate(-908.79 -486.37)"/><polygon class="cls-2" points="56.55 111.02 56.55 108.24 54.65 111.02 54.07 111.02 52.17 108.24 52.17 111.02 51.52 111.02 51.52 107.05 52.18 107.05 54.39 110.29 56.59 107.05 57.2 107.05 57.2 111.02 56.55 111.02"/><polygon class="cls-2" points="62.2 111.02 60.27 107.82 58.32 111.02 57.54 111.02 60.01 107.05 60.53 107.05 62.99 111.02 62.2 111.02"/><path class="cls-2" d="M972.12,597.39v-4h3.41c1.06,0,1.38.39,1.38,1.17v1.67c0,.74-.32,1.13-1.38,1.13Zm4.09-2.8c0-.45-.15-.58-.68-.58h-2.7v2.79h2.7c.53,0,.68-.13.68-.55Z" transform="translate(-908.79 -486.37)"/><polygon class="cls-2" points="68.78 111.02 68.78 107.05 72.61 107.05 72.61 107.63 69.48 107.63 69.48 108.63 72.45 108.63 72.45 109.21 69.48 109.21 69.48 110.43 72.61 110.43 72.61 111.02 68.78 111.02"/><polygon class="cls-2" points="79.18 111.02 77.77 109.25 76.56 109.25 76.56 111.02 75.85 111.02 75.85 107.05 76.56 107.05 76.56 108.66 77.75 108.66 79.15 107.05 79.99 107.05 78.33 108.9 79.98 111.02 79.18 111.02"/><rect class="cls-2" x="80.42" y="107.05" width="0.7" height="3.97"/><polygon class="cls-2" points="81.84 111.02 81.84 107.05 82.55 107.05 82.55 110.43 85.57 110.43 85.57 111.02 81.84 111.02"/><rect class="cls-2" x="86.09" y="107.05" width="0.7" height="3.97"/><polygon class="cls-2" points="92.53 111.02 92.53 108.24 90.63 111.02 90.06 111.02 88.16 108.24 88.16 111.02 87.51 111.02 87.51 107.05 88.16 107.05 90.37 110.29 92.58 107.05 93.18 107.05 93.18 111.02 92.53 111.02"/><rect class="cls-2" x="1.26" y="109.34" width="2.91" height="0.64"/><rect class="cls-2" x="35.99" y="109.34" width="2.91" height="0.64"/><rect class="cls-2" x="58.81" y="109.34" width="2.91" height="0.64"/><polygon class="cls-2" points="93.08 54.23 73.42 54.23 82.8 63.61 63.31 63.61 72.03 72.31 56.25 72.31 64.84 80.91 51.39 80.91 51.47 80.99 59.99 89.5 33.23 89.5 41.76 80.99 41.83 80.91 28.37 80.91 36.97 72.31 21.19 72.31 29.6 63.9 29.9 63.61 10.42 63.61 19.8 54.23 0.14 54.23 9.61 44.76 0.14 35.28 19.8 35.28 10.42 25.9 29.9 25.9 29.6 25.6 21.19 17.19 36.97 17.19 28.37 8.6 41.7 8.6 41.7 8.54 33.16 0 59.91 0 51.39 8.52 51.32 8.59 51.32 8.6 64.84 8.6 56.25 17.19 72.03 17.19 63.62 25.6 63.31 25.9 82.8 25.9 73.42 35.28 93.08 35.28 83.6 44.76 93.08 54.23"/><rect class="cls-3" x="931.48" y="507.21" width="47.84" height="47.84" transform="translate(-1004.52 344.76) rotate(-45)"/><rect class="cls-4" x="935.47" y="511.19" width="39.87" height="39.87" transform="translate(-1004.52 344.76) rotate(-45)"/><rect class="cls-1" x="939.45" y="514.85" width="31.89" height="31.89" transform="translate(-1004.29 344.67) rotate(-45)"/><path class="cls-2" d="M966.53,530.22l-2.5,2.5.89-4.12-.1-.09-4.17,4.16.19-4.11-3.91,3.91.18-3-3.05.19L958,525.7l-4.14.21,4.2-4.19-.09-.09-4.15.89,2.52-2.51-1-1L943.2,531.13l1,1,2.6-2.61-.93,4.28v.1l0,0h0l4.26-4.27-.2,4.13,3.92-3.92-.17,3.06,3-.18-3.92,3.91,4.13-.2-4.27,4.27,0,0,0,0h.1l4.28-.93-2.6,2.6.91.92,12.12-12.12Z" transform="translate(-908.79 -486.37)"/><polygon class="cls-3" points="58.65 44.76 46.53 56.87 45.62 55.96 48.22 53.36 43.94 54.28 43.9 54.24 48.17 49.98 44.04 50.18 47.96 46.27 44.9 46.45 45.08 43.39 41.16 47.3 41.36 43.18 37.1 47.45 37.06 47.4 37.99 43.13 35.39 45.73 34.41 44.76 46.53 32.64 47.53 33.63 45.01 36.15 49.15 35.26 49.24 35.35 45.05 39.54 49.19 39.33 45.27 43.24 48.31 43.06 48.14 46.1 52.05 42.18 51.86 46.3 56.03 42.13 56.13 42.23 55.24 46.35 57.74 43.84 58.65 44.76"/><polygon class="cls-5" points="58.65 44.87 46.75 56.87 45.64 55.77 45.62 55.8 43.93 54.13 40.77 51.02 40.4 50.64 37.24 47.53 35.55 45.86 35.6 45.82 34.41 44.65 46.33 32.64 47.5 33.8 47.55 33.74 49.24 35.42 52.38 38.51 52.39 38.5 55.92 41.99 57.61 43.65 57.52 43.74 58.65 44.87"/><path class="cls-2" d="M955.4,514.21l-16.91,16.92L955.4,548l16.92-16.91Zm-.08,29-.91-.92,2.6-2.6-4.28.93h-.1l0,0,0,0,4.27-4.27-4.13.2,3.92-3.91-3,.18.17-3.06L950,533.68l.2-4.13-4.26,4.27h0l0,0v-.1l.93-4.28-2.6,2.61-1-1L955.32,519l1,1-2.52,2.51,4.15-.89.09.09-4.2,4.19,4.14-.21-3.92,3.92,3.05-.19-.18,3,3.91-3.91-.19,4.11,4.17-4.16.1.09-.89,4.12,2.5-2.5.91.91Z" transform="translate(-908.79 -486.37)"/></svg>